<svg width="33" height="33" viewBox="0 0 33 33" fill="none" xmlns="http://www.w3.org/2000/svg">
<rect x="1" y="1" width="18" height="17" fill="#FF002E"/>
<rect x="14" y="15" width="18" height="17" fill="white"/>
<path d="M1.05605 0.00159937C0.765224 0.0320802 0.496111 0.169563 0.300995 0.387356C0.105878 0.60515 -0.00130984 0.88769 0.000254627 1.18009V4.71559C-0.00195406 4.87175 0.0268985 5.0268 0.0851357 5.17172C0.143373 5.31664 0.229833 5.44854 0.339492 5.55975C0.449151 5.67097 0.579821 5.75928 0.723909 5.81956C0.867997 5.87983 1.02263 5.91089 1.17882 5.91089C1.33501 5.91089 1.48964 5.87983 1.63373 5.81956C1.77781 5.75928 1.90848 5.67097 2.01814 5.55975C2.1278 5.44854 2.21426 5.31664 2.2725 5.17172C2.33074 5.0268 2.35959 4.87175 2.35738 4.71559V2.35858H4.71451C4.87068 2.36079 5.02573 2.33194 5.17065 2.2737C5.31558 2.21546 5.44748 2.12902 5.5587 2.01937C5.66991 1.90971 5.75823 1.77905 5.81851 1.63498C5.87879 1.4909 5.90983 1.33627 5.90983 1.18009C5.90983 1.02391 5.87879 0.869284 5.81851 0.725205C5.75823 0.581127 5.66991 0.450468 5.5587 0.340815C5.44748 0.231162 5.31558 0.144717 5.17065 0.0864812C5.02573 0.0282452 4.87068 -0.000605167 4.71451 0.00159937H1.17882C1.13792 -0.000533124 1.09695 -0.000533124 1.05605 0.00159937ZM7.78368 0.00159937C7.62891 0.00965993 7.47724 0.0481029 7.33734 0.114775C7.19743 0.181447 7.07203 0.275028 6.96829 0.390162C6.86455 0.505295 6.78451 0.63973 6.73272 0.785797C6.68094 0.931865 6.65844 1.08671 6.6665 1.24147C6.67456 1.39624 6.71303 1.5479 6.77971 1.6878C6.84638 1.8277 6.93996 1.95309 7.0551 2.05682C7.17024 2.16055 7.30469 2.2406 7.45076 2.29238C7.59683 2.34416 7.75168 2.36664 7.90645 2.35858H11.7859C11.9421 2.36079 12.0971 2.33194 12.242 2.2737C12.387 2.21546 12.5189 2.12902 12.6301 2.01937C12.7413 1.90971 12.8296 1.77905 12.8899 1.63498C12.9502 1.4909 12.9812 1.33627 12.9812 1.18009C12.9812 1.02391 12.9502 0.869284 12.8899 0.725205C12.8296 0.581127 12.7413 0.450468 12.6301 0.340815C12.5189 0.231162 12.387 0.144717 12.242 0.0864812C12.0971 0.0282452 11.9421 -0.000605167 11.7859 0.00159937H7.90645C7.86555 -0.000533124 7.82458 -0.000533124 7.78368 0.00159937ZM14.806 0.00159937C14.6512 0.00965993 14.4995 0.0481029 14.3596 0.114775C14.2197 0.181447 14.0943 0.275028 13.9906 0.390162C13.8868 0.505295 13.8068 0.63973 13.755 0.785797C13.7032 0.931865 13.6807 1.08671 13.6888 1.24147C13.6968 1.39624 13.7353 1.5479 13.802 1.6878C13.8687 1.8277 13.9622 1.95309 14.0774 2.05682C14.1925 2.16055 14.327 2.2406 14.473 2.29238C14.6191 2.34416 14.774 2.36664 14.9287 2.35858H17.2858V4.71559C17.2836 4.87175 17.3125 5.0268 17.3707 5.17172C17.429 5.31664 17.5154 5.44854 17.6251 5.55975C17.7347 5.67097 17.8654 5.75928 18.0095 5.81956C18.1536 5.87983 18.3082 5.91089 18.4644 5.91089C18.6206 5.91089 18.7752 5.87983 18.9193 5.81956C19.0634 5.75928 19.1941 5.67097 19.3037 5.55975C19.4134 5.44854 19.4999 5.31664 19.5581 5.17172C19.6163 5.0268 19.6452 4.87175 19.643 4.71559V1.18009C19.6429 0.867542 19.5188 0.567815 19.2977 0.34681C19.0767 0.125804 18.777 0.00163062 18.4644 0.00159937H14.9287C14.8878 -0.000533124 14.8468 -0.000533124 14.806 0.00159937ZM1.17882 6.67976C0.868392 6.68624 0.573061 6.81496 0.356984 7.03792C0.140907 7.26088 0.0215377 7.56009 0.024808 7.87055V11.7621C0.0225993 11.9182 0.0514519 12.0733 0.109689 12.2182C0.167926 12.3631 0.254387 12.495 0.364046 12.6062C0.473704 12.7174 0.604375 12.8057 0.748462 12.866C0.89255 12.9263 1.04718 12.9573 1.20337 12.9573C1.35956 12.9573 1.51419 12.9263 1.65828 12.866C1.80237 12.8057 1.93304 12.7174 2.0427 12.6062C2.15236 12.495 2.23882 12.3631 2.29705 12.2182C2.35529 12.0733 2.38414 11.9182 2.38193 11.7621V7.87055C2.3836 7.71268 2.35352 7.55606 2.29349 7.41003C2.23346 7.26401 2.14471 7.13153 2.03249 7.02047C1.92027 6.9094 1.78688 6.822 1.64023 6.76347C1.49359 6.70495 1.33668 6.67648 1.17882 6.67976ZM18.4644 6.67976C18.154 6.68624 17.8587 6.81496 17.6426 7.03792C17.4265 7.26088 17.3071 7.56009 17.3104 7.87055V11.7621C17.3082 11.9182 17.337 12.0733 17.3953 12.2182C17.4535 12.3631 17.54 12.495 17.6496 12.6062C17.7593 12.7174 17.89 12.8057 18.0341 12.866C18.1781 12.9263 18.3328 12.9573 18.489 12.9573C18.6452 12.9573 18.7998 12.9263 18.9439 12.866C19.088 12.8057 19.2186 12.7174 19.3283 12.6062C19.4379 12.495 19.5244 12.3631 19.5826 12.2182C19.6409 12.0733 19.6697 11.9182 19.6675 11.7621V7.87055C19.6692 7.71268 19.6391 7.55606 19.5791 7.41003C19.5191 7.26401 19.4303 7.13153 19.3181 7.02047C19.2059 6.9094 19.0725 6.822 18.9258 6.76347C18.7792 6.70495 18.6223 6.67648 18.4644 6.67976ZM14.4131 13.358C14.1223 13.3884 13.8532 13.5259 13.658 13.7437C13.4629 13.9615 13.3557 14.244 13.3573 14.5364V21.6075V31.8211C13.3573 32.1337 13.4815 32.4334 13.7025 32.6544C13.9235 32.8754 14.2233 32.9996 14.5359 32.9996H21.2144C21.3706 33.0018 21.5256 32.973 21.6705 32.9147C21.8154 32.8565 21.9473 32.77 22.0585 32.6604C22.1697 32.5507 22.258 32.4201 22.3183 32.276C22.3785 32.1319 22.4096 31.9773 22.4096 31.8211C22.4096 31.665 22.3785 31.5104 22.3183 31.3663C22.258 31.2222 22.1697 31.0915 22.0585 30.9819C21.9473 30.8722 21.8154 30.7858 21.6705 30.7276C21.5256 30.6693 21.3706 30.6405 21.2144 30.6427H15.7144V21.6075V15.715H30.6429V30.6427H25.1429C24.9868 30.6405 24.8317 30.6693 24.6868 30.7276C24.5419 30.7858 24.41 30.8722 24.2988 30.9819C24.1876 31.0915 24.0993 31.2222 24.0391 31.3663C23.9788 31.5104 23.9478 31.665 23.9478 31.8211C23.9478 31.9773 23.9788 32.1319 24.0391 32.276C24.0993 32.4201 24.1876 32.5507 24.2988 32.6604C24.41 32.77 24.5419 32.8565 24.6868 32.9147C24.8317 32.973 24.9868 33.0018 25.1429 32.9996H31.8215C32.134 32.9996 32.4338 32.8754 32.6548 32.6544C32.8758 32.4334 33 32.1337 33 31.8211V14.5364C33 14.2239 32.8758 13.9242 32.6548 13.7032C32.4338 13.4822 32.134 13.358 31.8215 13.358H14.5359C14.495 13.3558 14.454 13.3558 14.4131 13.358ZM1.16654 13.7262C1.01072 13.7278 0.856769 13.7603 0.713587 13.8218C0.570404 13.8833 0.440835 13.9726 0.332375 14.0844C0.223915 14.1963 0.138716 14.3286 0.0817088 14.4736C0.0247012 14.6186 -0.00298409 14.7735 0.000254627 14.9293V18.4648C0.000290453 18.7773 0.124472 19.077 0.345488 19.2981C0.566505 19.5191 0.866256 19.6432 1.17882 19.6433H4.71451C4.87078 19.6456 5.02596 19.6169 5.17102 19.5587C5.31608 19.5006 5.44813 19.4141 5.55947 19.3045C5.67082 19.1948 5.75924 19.0641 5.8196 18.9199C5.87995 18.7758 5.91103 18.6211 5.91103 18.4648C5.91103 18.3085 5.87995 18.1538 5.8196 18.0096C5.75924 17.8655 5.67082 17.7348 5.55947 17.6251C5.44813 17.5154 5.31608 17.429 5.17102 17.3708C5.02596 17.3127 4.87078 17.2839 4.71451 17.2863H2.35738V14.9293C2.36066 14.7714 2.3322 14.6145 2.27367 14.4679C2.21514 14.3213 2.12774 14.1879 2.01667 14.0757C1.9056 13.9634 1.77311 13.8747 1.62707 13.8147C1.48104 13.7546 1.32443 13.7246 1.16654 13.7262ZM7.78368 17.2863C7.62833 17.2936 7.47595 17.3314 7.33529 17.3978C7.19463 17.4641 7.06847 17.5576 6.96406 17.6728C6.85965 17.7881 6.77905 17.9228 6.72689 18.0693C6.67473 18.2158 6.65204 18.3712 6.66013 18.5265C6.66822 18.6818 6.70693 18.834 6.77402 18.9743C6.84112 19.1145 6.93528 19.2402 7.0511 19.344C7.16692 19.4478 7.30211 19.5276 7.4489 19.579C7.59569 19.6303 7.75119 19.6522 7.90645 19.6433H11.7859C11.9422 19.6456 12.0973 19.6169 12.2424 19.5587C12.3875 19.5006 12.5195 19.4141 12.6309 19.3045C12.7422 19.1948 12.8306 19.0641 12.891 18.9199C12.9513 18.7758 12.9824 18.6211 12.9824 18.4648C12.9824 18.3085 12.9513 18.1538 12.891 18.0096C12.8306 17.8655 12.7422 17.7348 12.6309 17.6251C12.5195 17.5154 12.3875 17.429 12.2424 17.3708C12.0973 17.3127 11.9422 17.2839 11.7859 17.2863H7.90645C7.86555 17.2842 7.82458 17.2842 7.78368 17.2863Z" fill="black"/>
</svg>
