<svg width="39" height="39" viewBox="0 0 39 39" fill="none" xmlns="http://www.w3.org/2000/svg">
<path d="M11 14.5L9 17.5H5.5V15.5V14L6.5 12.5L7.5 12L9.5 11L11 10L12 9L13 7.5L14 7H16L18.5 7.5H20L22.5 7H24.5L26 8V9L24.5 10L23.5 10.5L22 11.5C18 9.89995 13 12.8333 11 14.5Z" fill="#FF002E"/>
<path d="M5.49945 28H9.5464C12.2268 32.8032 16.7259 34.004 18.6404 34.004C25.5328 34.3735 28.5323 30.1553 29.1704 28H33.4995L32.9995 31.6948L31.5636 33.0803L29.1704 34.004L27.7345 34.9277C25.4371 38.992 21.3527 38.1606 19.5977 37.2369C16.5344 38.3454 14.4922 38.0067 13.854 37.6988C13.0882 36.2209 10.9823 34.6198 10.025 34.004C5.81303 33.6345 5.02081 29.8474 5.49945 28Z" fill="#FF002E"/>
<path d="M32 11.5833L30 11L28 12.1667L27 13.9167L28.5 15.6667L30 18H34L33.5 13.3333L32 11.5833Z" fill="#FF002E"/>
<path d="M0.00407157 18.8814V18.1196C0.316564 17.4076 0.839761 17.074 1.63982 17.1106C2.51419 17.1503 3.39162 17.1198 4.26802 17.1198C4.44004 17.1198 4.61207 17.1198 4.76475 17.1198C4.80852 16.6905 4.85127 16.3183 4.88384 15.945C4.93677 15.3368 4.94797 14.7235 5.04162 14.1214C5.18616 13.1877 5.60146 12.4096 6.39541 11.8278C7.14255 11.2796 8.00165 10.9979 8.84039 10.6673C9.7514 10.3093 10.5708 9.86074 11.1846 9.05927C11.6874 8.40426 12.2412 7.78485 12.8183 7.19392C13.3059 6.69452 13.9064 6.31616 14.619 6.2531C15.4546 6.17886 16.2781 6.2887 17.0975 6.51246C17.8915 6.7291 18.717 6.98745 19.5211 6.96507C20.4148 6.93964 21.3035 6.63146 22.187 6.41991C22.986 6.22971 23.7851 6.14936 24.5923 6.32125C25.2529 6.46161 25.7822 6.83793 26.2586 7.30275C26.3318 7.37394 26.5456 7.43395 26.5782 7.39632C27.1024 6.7942 27.6113 6.17682 28.1172 5.55843C28.5987 4.97055 29.0313 4.33588 29.5596 3.79478C30.1703 3.16927 30.8228 2.56715 31.5312 2.0586C32.2702 1.52869 33.0764 1.0771 33.8948 0.676369C34.5004 0.381411 35.1722 0.22071 35.8145 0C36.1952 0 36.5769 0 36.9576 0C37.0502 0.0478035 37.1378 0.116966 37.2355 0.140359C38.459 0.433283 38.7684 1.38122 38.7684 2.21829C38.7684 2.94246 38.5628 3.65544 38.23 4.31147C37.4818 5.78219 36.4873 7.05559 35.2506 8.15812C34.3223 8.98604 33.3451 9.72343 32.2488 10.3133C31.8661 10.5198 31.5241 10.7995 31.1312 11.0691C31.288 11.128 31.3816 11.1575 31.4702 11.1982C32.6458 11.7363 33.6261 12.4716 33.851 13.8417C33.9955 14.7214 34.0444 15.6175 34.1391 16.5064C34.1604 16.7088 34.1991 16.9102 34.2307 17.1208C35.3707 17.1208 36.4619 17.1116 37.5521 17.1248C38.1017 17.132 38.5822 17.3394 38.8326 17.851C39.0789 18.3545 39.0545 18.8661 38.684 19.3289C38.1017 20.0571 37.5236 20.7884 36.9434 21.5197C36.6584 21.8787 36.3754 22.2388 36.0985 22.5897C36.239 22.7748 36.3479 22.9264 36.465 23.0708C37.2253 24.0116 38.0193 24.927 38.7389 25.8973C39.3374 26.7049 38.859 27.9366 37.7913 28.0159C36.7306 28.0942 35.6608 28.0647 34.5951 28.0515C34.2398 28.0474 34.1493 28.1847 34.1289 28.5092C34.0729 29.4052 34.0281 30.3054 33.8978 31.1923C33.7838 31.9632 33.4652 32.7159 32.8046 33.1482C32.0351 33.6516 31.1892 34.0625 30.3311 34.3992C29.3173 34.7969 28.4175 35.3125 27.707 36.1496C27.1441 36.8138 26.5873 37.4891 25.9685 38.0994C25.3923 38.6679 24.6686 38.9629 23.8329 38.9873C22.8842 39.0158 22.0119 38.6822 21.107 38.5011C20.4036 38.3608 19.6708 38.1838 18.9725 38.2519C18.0666 38.3414 17.1881 38.6822 16.2883 38.8683C15.5697 39.0168 14.8419 39.0839 14.1202 38.8144C13.0738 38.4238 12.4071 37.5969 11.7404 36.7761C11.1113 36.0011 10.5077 35.2037 9.54986 34.8009C8.97577 34.5589 8.39252 34.3371 7.81232 34.1083C6.90945 33.7513 6.07885 33.2855 5.54242 32.4413C5.05078 31.6683 4.95713 30.7773 4.88079 29.8924C4.82888 29.2944 4.81666 28.6933 4.78511 28.0545C3.62166 28.0545 2.48264 28.0464 1.34362 28.0596C0.959872 28.0637 0.646361 27.9213 0.388835 27.6701C0.228008 27.5124 0.128254 27.2948 0 27.1036C0 26.8249 0 26.5452 0 26.2665C0.951729 25.0307 1.90346 23.7939 2.85926 22.5521C2.28415 21.8482 1.68359 21.1322 1.10645 20.3968C0.724739 19.9056 0.37153 19.3879 0.00407157 18.8814ZM33.0591 17.0516C33.0377 16.9824 33.0031 16.9133 32.998 16.8431C32.9451 16.0701 32.9217 15.2941 32.8413 14.5241C32.7802 13.9434 32.6122 13.3962 32.1532 12.968C31.6066 12.4574 30.9215 12.2224 30.2507 11.961C30.1204 11.9102 29.9189 11.9438 29.7886 12.0129C29.5402 12.1441 29.3183 12.3252 29.0883 12.4899C28.6414 12.8093 28.1712 13.0971 28.107 13.7379C28.0897 13.9139 28.0826 14.0166 28.2109 14.1468C29.0201 14.9635 29.6858 15.886 30.2304 16.899C30.2864 17.0028 30.4462 17.1106 30.5602 17.1126C31.3704 17.1279 32.1817 17.1167 32.9919 17.1126C33.0143 17.0933 33.0367 17.073 33.0581 17.0536L33.0591 17.0516ZM10.0578 16.9702C10.0344 17.0069 10.011 17.0425 9.98755 17.0791C10.014 17.0892 10.0405 17.1004 10.0669 17.1106C10.2064 17.1136 10.3459 17.1198 10.4853 17.1198C15.7152 17.1198 20.9441 17.1198 26.1741 17.1198C27.1004 17.1198 28.0266 17.1136 28.9529 17.1106C28.9733 17.1096 28.9946 17.1086 29.015 17.1075C28.9977 17.0872 28.9804 17.0658 28.9631 17.0455C28.4959 16.3925 28.0338 15.7365 27.5492 15.0967C27.5106 15.0459 27.2734 15.0713 27.192 15.1385C25.7842 16.3061 24.2116 16.6458 22.4465 16.1515C21.4429 15.8708 20.5675 15.3703 19.7858 14.697C19.0264 14.043 19.1364 13.0097 20.0189 12.5896C20.4036 12.4065 20.7182 12.077 21.0653 11.8136C21.0459 11.7586 21.0256 11.7037 21.0062 11.6488C20.0362 11.6488 19.0549 11.5562 18.0991 11.6702C16.5743 11.8512 15.1269 12.3374 13.8097 13.1622C13.3914 13.4246 13.0484 13.3779 12.8784 13.0626C12.6789 12.6923 12.7878 12.4075 13.2428 12.1675C13.6937 11.9285 14.1467 11.6895 14.6108 11.4789C15.8923 10.8961 17.2339 10.5208 18.6468 10.5168C19.6239 10.5137 20.6011 10.6083 21.5783 10.6581C21.8694 10.6734 22.1341 10.6602 22.3783 10.4323C22.9382 9.91058 23.5886 9.54849 24.3622 9.43458C24.5536 9.4061 24.7897 9.39186 24.917 9.27489C25.2111 9.00435 25.4514 8.67481 25.7048 8.37985C25.0951 7.65364 24.3836 7.25087 23.4767 7.39327C22.6776 7.51837 21.8928 7.73908 21.0958 7.88147C20.4505 7.99641 19.7787 8.19372 19.1476 8.11439C18.0574 7.9781 16.9978 7.61601 15.9117 7.42683C15.191 7.30173 14.4215 7.25189 13.8382 7.84893C13.2285 8.47241 12.6178 9.10097 12.0722 9.78039C11.4146 10.6002 10.6024 11.1748 9.64758 11.5776C8.88111 11.901 8.11463 12.2245 7.35427 12.5632C6.77203 12.8225 6.43409 13.3087 6.26411 13.8976C5.9679 14.9269 6.00658 15.9938 5.95976 17.0506C5.98215 17.0709 6.00353 17.0903 6.02592 17.1106C6.68551 17.1136 7.34918 17.0821 8.00572 17.132C8.48107 17.1676 8.68974 16.9784 8.94116 16.5868C9.50406 15.7121 10.1525 14.8893 10.8192 14.0898C10.9444 13.9393 11.3352 13.9179 11.5694 13.9769C11.8157 14.039 11.8992 14.3512 11.8025 14.5801C11.7047 14.8109 11.4961 14.994 11.3424 15.2035C10.9118 15.7914 10.4853 16.3813 10.0578 16.9702ZM10.0079 28.0596C11.3434 30.7661 14.7269 33.2753 18.4635 33.5621C23.7617 33.969 27.5156 30.8444 28.9916 28.0596C27.7976 28.0596 21.6179 28.0596 20.4391 28.0596C19.8905 28.0596 19.5414 27.8359 19.5393 27.487C19.5373 27.1341 19.8763 26.9185 20.4361 26.9185C24.3723 26.9185 33.3085 26.9185 37.2447 26.9185C37.3464 26.9185 37.4533 26.9378 37.548 26.9123C37.6437 26.8859 37.7679 26.835 37.8055 26.7588C37.8381 26.6916 37.7964 26.5533 37.7404 26.4831C36.8344 25.3399 35.9224 24.2018 35.0094 23.0647C34.7315 22.7178 34.7009 22.4697 34.9544 22.1523C35.5142 21.4495 36.0904 20.7589 36.6553 20.0602C37.0747 19.5404 37.4869 19.0156 37.9826 18.3921C37.6864 18.3362 37.493 18.2681 37.3006 18.2681C25.4666 18.263 13.6336 18.263 1.79963 18.2681C1.58588 18.2681 1.37212 18.3433 1.15938 18.384C1.26728 18.5976 1.3426 18.8366 1.48816 19.0207C2.33912 20.0948 3.20839 21.1556 4.0675 22.2235C4.24461 22.4432 4.2609 22.6914 4.0848 22.9131C3.16157 24.0736 2.22918 25.226 1.30697 26.3865C1.2286 26.4852 1.13088 26.6815 1.17159 26.7374C1.24386 26.8361 1.41182 26.8778 1.54821 26.9144C1.64288 26.9398 1.74976 26.9195 1.85155 26.9195C8.61951 26.9195 15.3865 26.9195 22.1544 26.9195C22.2816 26.9195 22.4119 26.9052 22.5341 26.9296C22.8506 26.9927 23.042 27.1666 23.0206 27.5216C22.9972 27.8989 22.7743 28.0607 22.2379 28.0607C18.3271 28.0607 14.4164 28.0607 10.5057 28.0607C10.354 28.0607 10.2023 28.0607 10.012 28.0607L10.0079 28.0596ZM5.9282 28.0596C5.98826 28.9618 6.00454 29.8273 6.11244 30.6817C6.24986 31.7741 6.88298 32.5115 7.91105 32.9112C8.46886 33.1278 9.02565 33.3475 9.57734 33.5774C10.4537 33.9425 11.264 34.4053 11.89 35.1437C12.4885 35.8506 13.0687 36.5758 13.713 37.2379C14.0907 37.6264 14.5915 37.9 15.1757 37.8319C15.7386 37.7658 16.2985 37.663 16.8563 37.5603C17.7022 37.4057 18.5399 37.1637 19.3919 37.0945C20.4271 37.0111 21.4093 37.4037 22.4038 37.6488C23.0196 37.8014 23.6375 37.9478 24.2747 37.7678C25.2712 37.4851 25.8178 36.6643 26.4346 35.9381C27.0383 35.2281 27.5665 34.4358 28.444 34.028C29.2532 33.6516 30.0848 33.3221 30.9052 32.9712C31.6147 32.6671 32.3008 32.2928 32.5949 31.5432C32.7893 31.0479 32.8484 30.4915 32.9115 29.9565C32.9838 29.3402 32.9929 28.7167 33.0296 28.0891C33.0235 28.0861 33.0021 28.0657 32.9797 28.0657C32.4595 28.0627 31.9343 28.1003 31.4193 28.0505C30.6976 27.9813 30.2263 28.144 29.8527 28.8713C29.2318 30.0796 28.3086 31.0926 27.2164 31.9114C26.4418 32.4921 25.6336 33.0434 24.7836 33.5031C23.4604 34.2202 22.0027 34.5884 20.5126 34.6992C19.117 34.803 17.7184 34.7247 16.3463 34.3433C14.4877 33.8266 12.8407 32.9295 11.4004 31.6642C10.3123 30.7082 9.43382 29.5721 8.75489 28.2864C8.69788 28.1776 8.51873 28.0739 8.39353 28.0708C7.59449 28.0515 6.79443 28.0607 5.9282 28.0607V28.0596ZM29.0659 6.17479C29.3926 6.5267 29.7051 6.85217 30.0054 7.18781C30.5744 7.8235 31.1322 8.46935 31.7114 9.09589C31.7684 9.15793 31.973 9.16708 32.0493 9.11521C32.772 8.61989 33.5273 8.15812 34.1849 7.58448C35.2017 6.69757 36.1209 5.70896 36.8059 4.52811C37.2711 3.72562 37.663 2.90584 37.5704 1.93553C37.5449 1.66295 37.4747 1.43309 37.1999 1.3507C36.8955 1.26018 36.5627 1.10965 36.2736 1.16152C35.615 1.27849 34.9452 1.43105 34.3355 1.69753C32.5603 2.47154 31.1393 3.72969 29.8609 5.15667C29.581 5.46892 29.3417 5.81779 29.0659 6.17479ZM20.3914 13.6901C20.5095 13.7837 20.596 13.8488 20.6785 13.919C21.9356 14.9788 23.3494 15.5107 24.9903 15.0632C25.9532 14.8008 26.7624 14.2902 27.0708 13.2528C27.1054 13.1368 27.078 12.9497 27.0026 12.8632C26.3349 12.0973 25.6519 11.3437 24.9628 10.5971C24.9017 10.531 24.748 10.4883 24.6625 10.5158C24.3174 10.6276 23.9296 10.7029 23.6548 10.9155C23.0715 11.3681 22.4985 11.8553 22.016 12.4096C21.5579 12.9375 21.0541 13.3646 20.3914 13.6901ZM25.9013 9.90346C26.4764 10.5361 27.0515 11.1647 27.6195 11.7983C27.7589 11.9539 27.8536 11.9885 28.0531 11.8431C28.9763 11.1697 29.9199 10.5229 30.8635 9.86074C30.0339 8.94535 29.2084 8.03607 28.3605 7.10034C27.5218 8.05641 26.7156 8.97383 25.9013 9.90244V9.90346ZM9.98654 17.0791C10.013 17.0892 10.0395 17.1004 10.0659 17.1106C10.0629 17.0638 10.0598 17.017 10.0568 16.9702C10.0334 17.0069 10.0099 17.0425 9.98654 17.0791ZM33.0591 17.0516C33.0367 17.0709 33.0143 17.0913 32.9929 17.1106C33.0153 17.0913 33.0377 17.0709 33.0591 17.0516ZM29.015 17.1075C28.9977 17.0872 28.9804 17.0658 28.9631 17.0455C28.9488 17.0658 28.9458 17.0872 28.9529 17.1106C28.9733 17.1096 28.9946 17.1086 29.015 17.1075ZM5.74905 22.5582C5.74905 21.8096 5.74702 21.061 5.74905 20.3124C5.75109 19.7469 5.84168 19.5191 6.4799 19.5608C6.90945 19.5893 7.34409 19.5903 7.77466 19.5608C8.80069 19.4926 9.79823 20.5738 9.35341 21.7974C9.22821 22.1412 9.2903 22.2978 9.49795 22.5643C10.3011 23.5915 9.94175 25.0582 8.52281 25.5647C8.21846 25.6735 7.85812 25.6328 7.52324 25.645C7.16799 25.6573 6.81275 25.6532 6.45649 25.6501C5.91192 25.6461 5.75821 25.5037 5.75109 24.9555C5.74091 24.156 5.74803 23.3566 5.74803 22.5582H5.74905ZM6.86161 22.9925C6.86161 23.438 6.84532 23.8417 6.87382 24.2415C6.88095 24.3381 7.03567 24.4998 7.12422 24.5018C7.48252 24.509 7.84489 24.4866 8.19912 24.4357C8.56352 24.3828 8.79458 24.034 8.76914 23.6434C8.74674 23.2945 8.44138 23.0016 8.07595 22.9945C7.6861 22.9864 7.29523 22.9925 6.86059 22.9925H6.86161ZM6.90538 21.8086C7.23518 21.8086 7.52629 21.832 7.8113 21.8025C8.16654 21.7658 8.33552 21.537 8.30905 21.1871C8.28258 20.8342 8.07086 20.6999 7.73598 20.707C7.46318 20.7132 7.18937 20.7081 6.90538 20.7081V21.8075V21.8086ZM23.8461 21.956L23.9235 22.0893C24.6381 23.1288 25.3567 24.1652 26.0662 25.2087C26.2626 25.4976 26.509 25.6664 26.8571 25.5576C27.1859 25.4538 27.2907 25.2016 27.2866 24.8568C27.2724 23.678 27.2815 22.4982 27.2815 21.3193C27.2815 20.9267 27.2907 20.5331 27.2795 20.1405C27.2683 19.7673 27.0291 19.5618 26.6443 19.5679C26.2932 19.574 26.1435 19.7449 26.1395 20.1517C26.1364 20.5067 26.1395 20.8616 26.1395 21.2166V23.2284C26.0417 23.1206 26.0112 23.0932 25.9888 23.0606C25.2508 21.9906 24.5108 20.9217 23.7769 19.8486C23.5846 19.5669 23.3036 19.5089 23.0186 19.5821C22.7611 19.6483 22.6969 19.8832 22.699 20.1507C22.7081 21.774 22.7071 23.3973 22.7 25.0195C22.699 25.3389 22.8364 25.58 23.1255 25.644C23.44 25.7142 23.6721 25.5179 23.7881 25.2219C23.8319 25.109 23.8421 24.9789 23.8431 24.8558C23.8502 23.9302 23.8523 23.0047 23.8553 22.0791C23.8523 22.0374 23.8502 21.9967 23.8472 21.955L23.8461 21.956ZM28.8043 22.6294C28.8043 21.8309 28.8012 21.0315 28.8053 20.2331C28.8074 19.869 28.9641 19.7205 29.3305 19.7194C29.7489 19.7184 30.1703 19.7489 30.5866 19.7133C31.8956 19.6035 32.8463 20.4762 33.1181 21.6509C33.3624 22.7087 33.2993 23.7471 32.6194 24.6656C32.1562 25.2911 31.5272 25.6206 30.7525 25.6542C30.3474 25.6725 29.9403 25.6583 29.5341 25.6573C29.0038 25.6573 28.8063 25.464 28.8063 24.9494C28.8063 24.1764 28.8063 23.4024 28.8063 22.6294H28.8043ZM29.9566 24.5486C30.3525 24.512 30.7261 24.5334 31.064 24.4337C31.6717 24.2537 31.9404 23.7807 32.0381 23.1654C32.1399 22.5297 32.1043 21.9154 31.7674 21.3722C31.3338 20.6735 30.6172 20.8718 29.9576 20.8749V24.5496L29.9566 24.5486ZM12.347 23.622C12.347 24.1103 12.3491 24.5985 12.347 25.0867C12.345 25.3979 12.0905 25.6684 11.7882 25.6532C11.4767 25.6369 11.2772 25.4569 11.2762 25.1375C11.2691 23.438 11.2691 21.7374 11.2762 20.0378C11.2772 19.7276 11.4482 19.5567 11.778 19.5659C12.3969 19.5821 13.0412 19.4865 13.6306 19.6249C14.6566 19.8649 15.0414 20.5138 15.075 21.3549C15.1035 22.0689 14.7839 22.728 13.7731 23.1511C13.7324 23.1684 13.6876 23.1745 13.6143 23.1938C14.0418 23.6871 14.4368 24.154 14.8449 24.6086C15.1432 24.9402 15.1707 25.2291 14.8989 25.4925C14.6332 25.7498 14.3431 25.7223 14.0265 25.3928C13.7476 25.1029 13.4789 24.8029 13.2133 24.5008C12.9517 24.2028 12.7002 23.8967 12.4437 23.5946C12.4122 23.6037 12.3796 23.6129 12.348 23.622H12.347ZM12.347 20.7091C12.347 21.003 12.347 21.2665 12.347 21.5289C12.347 22.1737 12.5221 22.3049 13.1634 22.134C13.2092 22.1218 13.2499 22.0913 13.2957 22.0801C13.6632 21.9937 13.9807 21.6377 13.9461 21.3478C13.9003 20.9623 13.5909 20.7101 13.1624 20.7091C12.9089 20.7091 12.6554 20.7091 12.347 20.7091ZM19.9995 24.4306C19.3186 24.4306 18.6722 24.4388 18.0258 24.4256C17.8274 24.4215 17.7368 24.4937 17.6808 24.6737C17.6187 24.871 17.5322 25.0602 17.4528 25.2514C17.3316 25.5423 16.9703 25.7386 16.7311 25.6461C16.4389 25.5321 16.271 25.1813 16.3881 24.8721C16.8919 23.5366 17.4039 22.2042 17.9118 20.8698C18.0167 20.5942 18.1124 20.3144 18.2162 20.0388C18.3251 19.751 18.5012 19.573 18.8432 19.5608C19.2097 19.5476 19.4356 19.7113 19.5557 20.0266C20.0789 21.3987 20.594 22.7728 21.1101 24.1469C21.2047 24.3981 21.3014 24.6483 21.3849 24.9026C21.4857 25.2097 21.3411 25.5169 21.0276 25.6237C20.7273 25.7264 20.4902 25.6237 20.3497 25.3328C20.2815 25.1904 20.2184 25.045 20.1614 24.8975C20.1044 24.751 20.0586 24.6005 19.9995 24.4306ZM18.888 21.5044C18.6427 22.1462 18.4381 22.6782 18.2172 23.2559H19.5405C19.3359 22.7056 19.1333 22.1635 18.888 21.5044ZM23.9235 22.0893L23.8461 21.956C23.8492 21.9977 23.8512 22.0384 23.8543 22.0801C23.8777 22.0781 23.9011 22.0811 23.9235 22.0893Z" fill="black"/>
</svg>
