<svg width="36" height="34" viewBox="0 0 36 34" fill="none" xmlns="http://www.w3.org/2000/svg">
<rect x="8.98633" y="0.999756" width="26" height="18" fill="white"/>
<rect x="1.98633" y="10.9998" width="22" height="22" fill="#FF002E"/>
<path d="M23.763 9.71448H1.66663C1.48621 9.71448 1.31317 9.78615 1.18559 9.91373C1.058 10.0413 0.986328 10.2144 0.986328 10.3948V32.5093C0.987517 32.6893 1.05957 32.8617 1.1869 32.989C1.31422 33.1163 1.48657 33.1884 1.66663 33.1896H23.763C23.9434 33.1896 24.1164 33.1179 24.244 32.9903C24.3716 32.8627 24.4433 32.6897 24.4433 32.5093V10.3948C24.4433 10.2144 24.3716 10.0413 24.244 9.91373C24.1164 9.78615 23.9434 9.71448 23.763 9.71448ZM2.34694 25.9874L6.11583 20.9985L10.0208 26.1688C10.083 26.2535 10.1642 26.3223 10.258 26.3695C10.3518 26.4168 10.4555 26.4413 10.5605 26.4409C10.6662 26.4413 10.7705 26.4169 10.865 26.3696C10.9595 26.3223 11.0416 26.2536 11.1047 26.1688L17.1731 18.1367L23.1008 25.9874V27.4795H2.34694V25.9874ZM23.1008 11.0751V23.7288L17.7128 16.5946C17.6506 16.51 17.5693 16.4412 17.4755 16.3939C17.3817 16.3466 17.2781 16.3222 17.1731 16.3225C17.0674 16.3222 16.9631 16.3466 16.8686 16.3939C16.7741 16.4411 16.692 16.5099 16.6288 16.5946L10.5605 24.6313L6.66008 19.461C6.59563 19.3781 6.5131 19.311 6.41877 19.2649C6.32445 19.2187 6.22084 19.1947 6.11583 19.1947C6.01083 19.1947 5.90722 19.2187 5.81289 19.2649C5.71857 19.311 5.63604 19.3781 5.57159 19.461L2.34694 23.7288V11.0751H23.1008ZM2.34694 31.829V28.8401H23.1008V31.8516L2.34694 31.829Z" fill="black"/>
<circle cx="7.98633" cy="14.9998" r="2" fill="white"/>
<path d="M8.17926 17.402C8.6441 17.4029 9.09877 17.2659 9.48571 17.0083C9.87265 16.7507 10.1745 16.3841 10.353 15.9549C10.5315 15.5257 10.5787 15.0532 10.4885 14.5971C10.3984 14.1411 10.175 13.7221 9.84662 13.3931C9.51825 13.0641 9.09964 12.8399 8.6438 12.7488C8.18795 12.6578 7.71535 12.7041 7.2858 12.8818C6.85625 13.0594 6.48907 13.3606 6.23072 13.747C5.97237 14.1334 5.83447 14.5878 5.83447 15.0527C5.83447 15.675 6.08137 16.2719 6.52097 16.7123C6.96057 17.1528 7.55697 17.4008 8.17926 17.402ZM8.17926 14.0685C8.37519 14.0676 8.56697 14.125 8.73026 14.2333C8.89355 14.3415 9.02097 14.4959 9.09637 14.6768C9.17176 14.8576 9.19172 15.0568 9.15372 15.249C9.11571 15.4412 9.02146 15.6178 8.88291 15.7563C8.74436 15.8949 8.56778 15.9891 8.37556 16.0271C8.18335 16.0652 7.98418 16.0452 7.80333 15.9698C7.62249 15.8944 7.46812 15.767 7.35982 15.6037C7.25153 15.4404 7.19419 15.2486 7.19508 15.0527C7.19628 14.792 7.30035 14.5424 7.48466 14.3581C7.66897 14.1738 7.91861 14.0697 8.17926 14.0685Z" fill="black"/>
<path d="M27.0692 16.0368C26.8887 16.0368 26.7157 16.1085 26.5881 16.2361C26.4605 16.3637 26.3889 16.5367 26.3889 16.7171C26.3889 16.8975 26.4605 17.0706 26.5881 17.1982C26.7157 17.3257 26.8887 17.3974 27.0692 17.3974H28.1531C28.3336 17.3974 28.5066 17.3257 28.6342 17.1982C28.7618 17.0706 28.8334 16.8975 28.8334 16.7171V3.2516C28.8334 3.07117 28.7618 2.89813 28.6342 2.77055C28.5066 2.64296 28.3336 2.57129 28.1531 2.57129H15.7262C15.5458 2.57129 15.3727 2.64296 15.2452 2.77055C15.1176 2.89813 15.0459 3.07117 15.0459 3.2516V7.52392C15.0459 7.70434 15.1176 7.87738 15.2452 8.00496C15.3727 8.13255 15.5458 8.20422 15.7262 8.20422C15.9066 8.20422 16.0797 8.13255 16.2073 8.00496C16.3348 7.87738 16.4065 7.70434 16.4065 7.52392V3.94097H27.4728V16.0368H27.0692Z" fill="black"/>
<path d="M29.9039 6.67129H33.0333C33.2138 6.67129 33.3868 6.59962 33.5144 6.47204C33.642 6.34445 33.7137 6.17142 33.7137 5.99099V2.86158C33.7137 2.68115 33.642 2.50811 33.5144 2.38053C33.3868 2.25295 33.2138 2.18127 33.0333 2.18127H29.9039C29.7235 2.18127 29.5505 2.25295 29.4229 2.38053C29.2953 2.50811 29.2236 2.68115 29.2236 2.86158V5.99099C29.2236 6.17142 29.2953 6.34445 29.4229 6.47204C29.5505 6.59962 29.7235 6.67129 29.9039 6.67129ZM30.5842 3.54189H32.353V5.31068H30.5661L30.5842 3.54189Z" fill="black"/>
<path d="M29.2051 11.5468C29.2051 11.7273 29.2768 11.9003 29.4043 12.0279C29.5319 12.1555 29.705 12.2271 29.8854 12.2271H33.0148C33.1952 12.2271 33.3683 12.1555 33.4958 12.0279C33.6234 11.9003 33.6951 11.7273 33.6951 11.5468V8.43104C33.6951 8.25061 33.6234 8.07757 33.4958 7.94999C33.3683 7.82241 33.1952 7.75073 33.0148 7.75073H29.8854C29.705 7.75073 29.5319 7.82241 29.4043 7.94999C29.2768 8.07757 29.2051 8.25061 29.2051 8.43104V11.5468ZM30.5657 9.10227H32.3345V10.8665H30.5657V9.10227Z" fill="black"/>
<path d="M29.2051 17.1072C29.2051 17.2876 29.2768 17.4607 29.4043 17.5882C29.5319 17.7158 29.705 17.7875 29.8854 17.7875H33.0148C33.1952 17.7875 33.3683 17.7158 33.4958 17.5882C33.6234 17.4607 33.6951 17.2876 33.6951 17.1072V13.9778C33.6951 13.7974 33.6234 13.6243 33.4958 13.4967C33.3683 13.3692 33.1952 13.2975 33.0148 13.2975H29.8854C29.705 13.2975 29.5319 13.3692 29.4043 13.4967C29.2768 13.6243 29.2051 13.7974 29.2051 13.9778V17.1072ZM30.5657 14.6581H32.3345V16.4269H30.5657V14.6581Z" fill="black"/>
<path d="M13.7848 6.67129C13.9652 6.67129 14.1383 6.59962 14.2659 6.47204C14.3934 6.34445 14.4651 6.17142 14.4651 5.99099V2.86158C14.4651 2.68115 14.3934 2.50811 14.2659 2.38053C14.1383 2.25295 13.9652 2.18127 13.7848 2.18127H10.6554C10.475 2.18127 10.3019 2.25295 10.1744 2.38053C10.0468 2.50811 9.9751 2.68115 9.9751 2.86158V5.99099C9.9751 6.17142 10.0468 6.34445 10.1744 6.47204C10.3019 6.59962 10.475 6.67129 10.6554 6.67129H13.7848ZM11.3357 3.54189H13.1045V5.31068H11.3357V3.54189Z" fill="black"/>
<path d="M34.9747 -0.000244141H8.9054C8.72534 0.000944422 8.55299 0.073001 8.42567 0.200326C8.29834 0.327652 8.22629 0.5 8.2251 0.680062V7.52394C8.2251 7.70437 8.29677 7.87741 8.42435 8.00499C8.55194 8.13257 8.72498 8.20425 8.9054 8.20425C9.08583 8.20425 9.25887 8.13257 9.38645 8.00499C9.51404 7.87741 9.58571 7.70437 9.58571 7.52394V1.36037H34.2944V18.5948H27.0378C26.8574 18.5948 26.6844 18.6665 26.5568 18.794C26.4292 18.9216 26.3575 19.0947 26.3575 19.2751C26.3575 19.4555 26.4292 19.6286 26.5568 19.7561C26.6844 19.8837 26.8574 19.9554 27.0378 19.9554H34.9747C35.1548 19.9542 35.3271 19.8822 35.4545 19.7548C35.5818 19.6275 35.6538 19.4552 35.655 19.2751V0.680062C35.6538 0.5 35.5818 0.327652 35.4545 0.200326C35.3271 0.073001 35.1548 0.000944422 34.9747 -0.000244141Z" fill="black"/>
</svg>
