<svg width="33" height="33" viewBox="0 0 33 33" fill="none" xmlns="http://www.w3.org/2000/svg">
<ellipse cx="6.98633" cy="28.4998" rx="4" ry="3.5" fill="#FF002E"/>
<ellipse cx="26.9863" cy="25.4998" rx="4" ry="3.5" fill="#FF002E"/>
<rect x="10.9863" y="4.63538" width="20.2114" height="5.67597" transform="rotate(-7.97356 10.9863 4.63538)" fill="white"/>
<path d="M31.7006 0.00741704C31.6926 0.0113027 31.6846 0.0152604 31.6768 0.0192985L11.1054 3.06691C10.5684 3.14613 10.1291 3.65515 10.1292 4.19789C10.128 11.0111 10.1292 17.0492 10.1292 23.8645C9.15777 23.2349 7.9638 22.8645 6.7006 22.8645C3.66117 22.8645 0.986328 24.9718 0.986328 27.8169C0.986328 30.662 3.66117 32.7692 6.7006 32.7692C9.74004 32.7692 12.4149 30.662 12.4149 27.8169V12.0431L30.7006 9.32883V20.8169C29.7292 20.1872 28.5352 19.8169 27.272 19.8169C24.2326 19.8169 21.5577 21.9242 21.5577 24.7693C21.5577 27.6144 24.2326 29.7216 27.272 29.7216C30.3114 29.7216 32.9863 27.6144 32.9863 24.7693C32.9864 16.6412 32.9863 9.27653 32.9863 1.15027C32.9913 0.501172 32.3446 -0.0736685 31.7006 0.00741704ZM30.7006 2.4717V7.01931L12.4149 9.73359V5.18598L30.7006 2.4717ZM27.272 22.1026C29.282 22.1026 30.7006 23.4065 30.7006 24.7693C30.7006 26.132 29.282 27.4359 27.272 27.4359C25.262 27.4359 23.8434 26.132 23.8434 24.7693C23.8434 23.4065 25.262 22.1026 27.272 22.1026ZM6.7006 25.1502C8.71062 25.1502 10.1292 26.4541 10.1292 27.8169C10.1292 29.1796 8.71062 30.4835 6.7006 30.4835C4.69058 30.4835 3.27204 29.1796 3.27204 27.8169C3.27204 26.4541 4.69059 25.1502 6.7006 25.1502Z" fill="black"/>
</svg>
