<svg width="52" height="41" viewBox="0 0 52 41" fill="none" xmlns="http://www.w3.org/2000/svg">
<rect x="10.9863" y="0.999756" width="26" height="35" fill="white"/>
<path d="M24.9863 14.4997L23.4863 13.9997C22.2863 13.5997 21.3197 14.4997 20.9863 14.9997V19.9997V22.4997L23.4863 23.4997L24.9863 22.4997L28.9863 18.9997L28.4863 16.9997L27.9863 16.4997L24.9863 14.4997Z" fill="#F07E92"/>
<path d="M10.4863 35.9998V1.49981C4.88633 -0.900187 2.15299 3.83315 1.48633 6.49981V27.9998C1.88633 35.9998 7.653 36.6665 10.4863 35.9998Z" fill="#F07E92"/>
<path d="M36.9863 9.95553V2.14879C42.5863 1.60571 45.3197 2.67678 45.9863 3.2802V8.14528C45.5863 9.95553 39.8197 10.1064 36.9863 9.95553Z" fill="#F07E92"/>
<path d="M39.9757 0H8.23446C4.23393 0 0.986328 3.21393 0.986328 7.17298V30.1463C0.986328 34.0963 4.23393 37.3192 8.23446 37.3192H24.1005C24.5995 37.3192 24.9986 36.9153 24.9986 36.4305C24.9986 35.9457 24.5904 35.5327 24.1005 35.5327H11.3913V1.78651H36.8369V18.6102C36.8369 19.104 37.2451 19.499 37.735 19.499C38.2249 19.499 38.6331 19.095 38.6331 18.6102V10.6652H45.4186V13.1699C45.4186 13.6637 45.8268 14.0587 46.3166 14.0587C46.8065 14.0587 47.2147 13.6547 47.2147 13.1699V7.17298C47.2147 3.2229 43.9671 0 39.9666 0L39.9757 0ZM45.4186 7.17298V8.88767H38.6331V1.78651H39.9757C42.9783 1.78651 45.4186 4.20145 45.4186 7.17298ZM9.58611 28.4316V35.5238H8.23446C5.23179 35.5238 2.79156 33.1088 2.79156 30.1373V28.4316H9.58611ZM9.58611 19.5439V26.6451H2.79156V19.5439H9.58611ZM9.58611 10.6562V17.7574H2.79156V10.6562H9.58611ZM8.23446 1.78651H9.58611V8.8787H2.79156V7.164C2.79156 4.20145 5.23179 1.78651 8.23446 1.78651Z" fill="black"/>
<path d="M28.6721 16.1953L24.7441 13.4482C24.2271 13.0891 23.6193 12.8916 22.9933 12.8916C22.5125 12.8916 22.0227 13.0083 21.5873 13.2327C20.5712 13.7534 19.9453 14.7769 19.9453 15.908V21.4022C19.9453 22.5334 20.5803 23.5568 21.5873 24.0775C22.5851 24.5892 23.8279 24.5084 24.7532 23.862L28.6812 21.1149C29.4885 20.5494 29.9693 19.6337 29.9693 18.6551C29.9693 17.6766 29.4885 16.7519 28.6812 16.1863L28.6721 16.1953ZM27.6289 19.6696L23.71 22.4167C23.4923 22.5693 23.2473 22.6501 22.9933 22.6501C22.7938 22.6501 22.5851 22.5962 22.4037 22.4975C21.9955 22.291 21.7415 21.878 21.7415 21.4112V15.917C21.7415 15.4412 21.9955 15.0372 22.4218 14.8218C22.6849 14.6781 23.2836 14.6063 23.71 14.9115L27.6289 17.6586C27.9645 17.892 28.155 18.2601 28.155 18.6641C28.155 19.0681 27.9645 19.4362 27.6289 19.6696Z" fill="black"/>
<path d="M47.9863 18.9998L45.4863 19.4998L41.9863 22.4998L30.4863 34.4998V39.9998L36.4863 38.9998L40.4863 35.4998L50.9863 24.4998V21.9998L49.9863 19.9998L47.9863 18.9998Z" fill="#F07E92"/>
<path d="M29.7698 34.4016L29.0804 38.4325C28.9625 39.1327 29.1892 39.8509 29.6973 40.3537C30.2053 40.8564 30.9219 41.0808 31.6476 40.9641L35.7026 40.2819C36.1562 40.21 36.5825 39.9946 36.9091 39.6624L50.6252 26.0885C52.4214 24.311 52.4214 21.4113 50.6252 19.6247C49.7543 18.7629 48.5932 18.2871 47.3595 18.2871C46.1257 18.2871 44.9646 18.7629 44.0937 19.6247L30.3776 33.2076C30.051 33.5398 29.8333 33.9438 29.7608 34.3927L29.7698 34.4016ZM45.3819 20.8995C46.4432 19.8492 48.3029 19.8492 49.3643 20.8995C50.4619 21.9858 50.4619 23.7544 49.3643 24.8406L47.4502 26.7439L43.4678 22.8028L45.3819 20.9085V20.8995ZM31.5116 34.635L42.1978 24.0596L46.1892 28.0097L46.026 28.1713L35.63 38.5043L30.7677 39.3213L31.5116 34.644V34.635Z" fill="black"/>
</svg>
