<svg width="41" height="34" viewBox="0 0 41 34" fill="none" xmlns="http://www.w3.org/2000/svg">
<rect x="9" y="1" width="23" height="32" rx="2" fill="white"/>
<rect x="1" y="11" width="15" height="15" fill="#FF002E"/>
<rect x="20" y="5" width="19" height="15" fill="#FF002E"/>
<rect x="23" y="25" width="13" height="5" rx="2.5" fill="#FF002E"/>
<path fill-rule="evenodd" clip-rule="evenodd" d="M32.2504 24.0367V20.7675V20.7665L32.2755 20.7246C32.2905 20.7232 32.3054 20.7214 32.3204 20.7195C32.3504 20.7158 32.3804 20.7121 32.4104 20.7121C33.5529 20.7121 34.6952 20.7123 35.8375 20.7126C36.9797 20.7129 38.122 20.7131 39.2645 20.7131C39.664 20.7131 39.9244 20.5374 40.0782 20.1735C40.0874 20.1521 40.1079 20.1351 40.1282 20.1181L40.1402 20.1081C40.1456 20.1035 40.1508 20.0988 40.1556 20.094V4.99475C40.1336 4.96609 40.1123 4.93711 40.0909 4.90814C40.046 4.84728 40.0012 4.78652 39.9516 4.72912C39.7351 4.47813 39.4434 4.42374 39.1307 4.42374C37.5881 4.42584 36.0466 4.42688 34.5041 4.42688H32.2566C32.2554 4.40334 32.2537 4.38154 32.2521 4.36073V4.36066V4.3606V4.36055V4.36051C32.2496 4.32778 32.2472 4.29752 32.2472 4.26687C32.2463 4.06842 32.2479 3.86996 32.2495 3.67157C32.2532 3.22909 32.2568 2.78692 32.2315 2.34574C32.1761 1.39197 31.7264 0.668279 30.8605 0.233226C30.5049 0.0543944 30.119 1.28554e-05 29.7206 1.28554e-05C26.0613 0.00210445 22.401 0.00210445 18.7407 0.00210445C17.9471 0.00210445 17.1535 0.00244594 16.3599 0.00278742C14.3759 0.00364114 12.3918 0.00449485 10.4078 1.28554e-05C9.66528 -0.00207874 9.04198 0.251005 8.54523 0.800049C8.2043 1.17235 7.9784 1.60636 7.92611 2.11566C7.90624 2.29763 7.90624 2.48168 7.90624 2.66468V2.66471C7.90624 5.11606 7.90624 7.56637 7.91356 10.0177C7.91356 10.1945 7.83513 10.2039 7.70127 10.2039C5.53751 10.2028 3.37479 10.2028 1.21104 10.2028L1.14316 10.2027C1.02226 10.2023 0.90084 10.2018 0.780166 10.2133C0.446556 10.2447 0.198702 10.3994 0.0752976 10.7247C0.0674166 10.7462 0.0472653 10.7628 0.0269483 10.7795H0.0269475L0.0269451 10.7795H0.0269436C0.0176054 10.7872 0.00823242 10.7949 0 10.8031V26.9618C0.00418554 26.9653 0.00906492 26.9687 0.0139668 26.972C0.0249871 26.9796 0.0361212 26.9872 0.0397404 26.9973C0.208114 27.4439 0.535449 27.5955 1.00188 27.5913C2.29019 27.5806 3.57906 27.5822 4.86767 27.5839H4.86816H4.86826H4.86837H4.86847H4.86858C5.33702 27.5845 5.80542 27.5851 6.27375 27.5851H7.89474L7.8987 27.6535L7.8987 27.6535C7.90151 27.7008 7.90311 27.7276 7.90311 27.7545C7.90345 28.3293 7.90345 28.904 7.90345 29.4788C7.90345 30.6286 7.90346 31.7783 7.90624 32.928L7.90615 32.9757C7.90566 33.1469 7.90514 33.3263 7.96063 33.4813C8.10495 33.8881 8.43437 34.001 8.84746 34C10.7337 33.9929 12.6199 33.9929 14.5061 33.9929C15.135 33.9929 15.764 33.9929 16.3929 33.9927L16.4109 33.9927C16.4771 33.9928 16.5431 33.9929 16.6083 33.9833C17.2641 33.8902 17.4638 33.1853 17.1501 32.7492C16.9221 32.4302 16.5906 32.4219 16.2716 32.4208C14.6057 32.4134 12.9405 32.4158 11.2749 32.4181C10.8304 32.4187 10.3859 32.4194 9.94137 32.4198C9.85824 32.4198 9.77557 32.4245 9.69306 32.4291C9.65205 32.4314 9.61108 32.4337 9.57011 32.4355C9.55547 32.4323 9.54187 32.4302 9.52723 32.4282L9.52667 32.4263C9.54082 32.4293 9.55405 32.4313 9.56827 32.4333C9.55404 32.4303 9.54081 32.4282 9.52664 32.4262C9.52166 32.41 9.51533 32.3938 9.50898 32.3775C9.49513 32.342 9.48122 32.3064 9.48122 32.2702C9.47954 31.099 9.48055 29.9284 9.48155 28.7574L9.48226 27.8789V27.584H10.7508C11.3355 27.5843 11.9202 27.5853 12.5047 27.5863C13.8408 27.5886 15.1768 27.5909 16.5132 27.5851C17.0664 27.583 17.2839 27.3592 17.3665 26.9262C17.4109 26.6913 17.4094 26.4459 17.4079 26.2034V26.2034L17.4075 26.1297L17.4073 26.0728C17.4094 21.1984 17.4094 16.3239 17.4073 11.4494C17.4073 11.256 17.4031 11.0593 17.3697 10.8701C17.3247 10.6159 17.2024 10.3838 16.9451 10.298C16.7495 10.2321 16.531 10.2039 16.3228 10.2039C14.3335 10.1984 12.3442 10.1985 10.3549 10.1986L9.50213 10.1986C9.499 10.1939 9.4956 10.1895 9.4922 10.1851C9.4888 10.1806 9.4854 10.1762 9.48226 10.1715V10.1706C9.48526 10.175 9.48847 10.1792 9.49167 10.1834C9.49517 10.188 9.49867 10.1926 9.5019 10.1974C9.50508 10.1805 9.49887 10.1708 9.48226 10.1695V9.78033L9.48226 9.77719V9.77629V9.77539V9.77449V9.77359C9.47912 7.33076 9.47599 4.88897 9.47599 2.44614C9.47599 2.31332 9.49063 2.17109 9.53874 2.04978C9.6841 1.6827 9.9832 1.57708 10.3586 1.57708C14.6506 1.57917 18.9426 1.57847 23.2345 1.57778C25.3805 1.57743 27.5265 1.57708 29.6725 1.57708C29.7248 1.57708 29.777 1.57708 29.8293 1.58022C30.2393 1.60636 30.5865 1.8082 30.6168 2.1805C30.6596 2.70381 30.6691 3.23024 30.6787 3.76051L30.6787 3.76071L30.6787 3.76091L30.6787 3.76111L30.6787 3.7613C30.6827 3.98317 30.6867 4.20571 30.6932 4.42897H30.2393C27.8214 4.42793 25.4035 4.42793 22.9856 4.42793C22.5838 4.42753 22.1819 4.4279 21.7799 4.42827C21.1365 4.42886 20.4929 4.42946 19.8493 4.42688C19.2772 4.42374 18.9718 4.77513 18.9729 5.32731C18.9817 9.01259 18.9807 12.6979 18.9798 16.3831C18.9795 17.5347 18.9792 18.6862 18.9792 19.8378C18.9792 19.8575 18.9785 19.8774 18.9778 19.8973V19.8973C18.9763 19.943 18.9747 19.9889 18.9813 20.0333C19.0388 20.4307 19.3222 20.7089 19.6924 20.7089C22.2966 20.7165 24.9003 20.7153 27.5042 20.714H27.5043H27.5044H27.5045H27.5063C28.4832 20.7136 29.46 20.7131 30.4369 20.7131H30.6597V24.0377H30.1933C29.6225 24.0377 29.0516 24.0383 28.4807 24.0389H28.4806L28.4749 24.0389C27.329 24.04 26.183 24.0412 25.0375 24.0377C24.3399 24.0356 23.7177 24.2134 23.2042 24.7091C22.7744 25.1243 22.4669 25.6242 22.4429 26.2161C22.4073 27.0799 22.4314 27.949 22.4784 28.8128C22.5066 29.3431 22.8026 29.7907 23.177 30.1431C23.6685 30.6064 24.2646 30.8291 24.9653 30.8218C26.2474 30.8078 27.5299 30.8125 28.8123 30.8173H28.8125H28.8128H28.813H28.8132H28.8134H28.8135H28.8137H28.8139C29.348 30.8192 29.882 30.8212 30.416 30.8218H30.6597V32.4104C30.6448 32.4116 30.632 32.4129 30.6205 32.4141L30.6202 32.4141L30.62 32.4141C30.6009 32.4161 30.5853 32.4177 30.5698 32.4177H24.3347C24.2609 32.4177 24.1869 32.4168 24.113 32.4158H24.1128C23.9647 32.414 23.8164 32.4121 23.6685 32.4177C23.2732 32.4323 22.9135 32.722 22.8622 33.0577C22.7995 33.4625 23.0337 33.8421 23.4437 33.9508C23.6004 33.9923 23.7702 33.9916 23.9365 33.9908L24.0032 33.9906C25.4667 33.9918 26.9299 33.992 28.3929 33.9921H28.393H28.393H28.3931H28.3932C29.368 33.9922 30.3427 33.9923 31.3175 33.9927C31.9293 33.9927 32.2483 33.6821 32.2504 33.0724C32.2511 32.6846 32.2499 32.2964 32.2487 31.9084V31.9081C32.2482 31.7143 32.2476 31.5206 32.2472 31.3269V30.8197C32.4149 30.8197 32.5809 30.8207 32.7458 30.8217H32.7462H32.7466H32.747H32.7473H32.7475C33.1239 30.8239 33.4942 30.826 33.864 30.8166L33.9742 30.8139H33.9742C34.3005 30.8062 34.6304 30.7984 34.9443 30.7298C35.4871 30.6106 35.8918 30.255 36.2181 29.8158C36.4796 29.4633 36.6532 29.0691 36.6647 28.6267C36.6771 28.1479 36.678 27.6685 36.6789 27.1894C36.6792 27.0218 36.6796 26.8542 36.6804 26.6867C36.6825 26.1868 36.6051 25.7079 36.352 25.2644C36.0696 24.7687 35.6597 24.4267 35.1378 24.2103C34.7201 24.0361 34.279 24.0364 33.839 24.0366L33.7877 24.0367H32.2504ZM1.78413 26.0216H1.57288V11.7893H15.8177V16.1158C15.8172 17.6092 15.8169 19.1026 15.8167 20.596C15.8164 22.0894 15.8161 23.5828 15.8156 25.0762C15.8156 25.1753 15.8126 25.2745 15.8096 25.3736C15.8051 25.5223 15.8006 25.671 15.8062 25.8198C15.8125 25.9756 15.7623 26.0195 15.6065 26.0195C14.3546 26.0168 13.1023 26.018 11.8501 26.0192H11.85H11.8499H11.8497H11.8496C11.1542 26.0199 10.4588 26.0205 9.76358 26.0205C7.10412 26.0216 4.4436 26.0216 1.78413 26.0216ZM20.5876 11.7318L20.5872 11.7315C20.5756 11.7222 20.5639 11.7129 20.552 11.7036H20.5541V6.028H38.5816V19.113C38.5762 19.1137 38.5709 19.1143 38.5656 19.115C38.562 19.1155 38.5586 19.116 38.5551 19.1164L38.5307 19.1199C38.4957 19.125 38.4623 19.1298 38.4289 19.1298C38.1579 19.1298 37.8868 19.129 37.6155 19.1282H37.615H37.6145H37.614H37.6135C37.1799 19.127 36.7461 19.1257 36.3122 19.1277C36.1846 19.1285 36.057 19.1336 35.9294 19.1387C35.7246 19.1469 35.5199 19.1551 35.3156 19.1455C35.1807 19.1392 35.0217 19.0775 34.9224 18.9865C34.6601 18.746 34.4053 18.4977 34.1503 18.2494L34.1502 18.2493L34.1501 18.2492C33.9761 18.0797 33.8021 17.9102 33.6256 17.743C33.1596 17.302 32.6904 16.8641 32.2215 16.4264L32.2214 16.4263L32.2205 16.4254L31.8038 16.0363C31.4145 15.672 31.0251 15.3087 30.6358 14.9454L30.6348 14.9444L30.05 14.3986C29.8363 14.1988 29.6229 13.9987 29.4096 13.7986C28.9829 13.3984 28.5562 12.9982 28.1268 12.6008C28.0217 12.5036 27.9169 12.4062 27.8119 12.3088L27.8118 12.3086C27.3412 11.8715 26.8703 11.4342 26.3855 11.0144C25.8877 10.5845 25.3073 10.2813 24.6547 10.1798C23.4813 9.99681 22.3749 10.1725 21.418 10.9349C21.2322 11.0832 21.0632 11.2539 20.8949 11.4239L20.8229 11.4965C20.7703 11.5491 20.7273 11.6114 20.6845 11.6735L20.6845 11.6735C20.6644 11.7027 20.6442 11.7319 20.6232 11.76C20.6113 11.7507 20.5996 11.7414 20.588 11.7321L20.5876 11.7318ZM32.7388 19.1266H20.5479L20.5489 19.1256V18.7815C20.5489 18.3994 20.5495 18.0173 20.5501 17.6351V17.635V17.6349V17.6348V17.6345C20.5519 16.4875 20.5536 15.3403 20.5395 14.1936C20.5353 13.9112 20.6587 13.7491 20.8407 13.587C20.9469 13.4921 21.0523 13.396 21.1577 13.2999L21.1578 13.2998L21.1579 13.2997L21.158 13.2996L21.1583 13.2993L21.1584 13.2992L21.1585 13.2992L21.1586 13.2991L21.1587 13.299C21.3166 13.155 21.4745 13.011 21.6355 12.8707C21.7124 12.8037 21.7888 12.7362 21.8653 12.6686L21.8656 12.6684L21.8656 12.6684L21.8656 12.6683L21.8657 12.6683L21.8657 12.6683C22.1285 12.4363 22.3915 12.204 22.6708 11.9943C23.153 11.6335 23.7177 11.669 24.2793 11.7266C24.9371 11.7945 25.4087 12.1763 25.8522 12.6259C26.1077 12.8849 26.3754 13.1316 26.6432 13.3783C26.782 13.5062 26.9208 13.6341 27.058 13.7638C27.2618 13.9566 27.4649 14.15 27.6679 14.3435L27.6681 14.3437L27.6684 14.3439L27.6686 14.3441L27.6688 14.3443C28.0072 14.6666 28.3456 14.989 28.6873 15.3084C28.9059 15.5124 29.1273 15.7129 29.3488 15.9134C29.5702 16.114 29.7917 16.3145 30.0103 16.5184C30.2717 16.7626 30.5305 17.0097 30.7894 17.2567C31.0482 17.5038 31.3071 17.7509 31.5685 17.9951C31.8387 18.2487 32.1139 18.4973 32.3889 18.7457C32.512 18.8569 32.635 18.968 32.7576 19.0796L32.7388 19.1266ZM29.4936 25.6284V25.6252C29.938 25.6252 30.3825 25.6262 30.827 25.6272C31.9182 25.6295 33.0095 25.6319 34.1004 25.62C34.7561 25.6137 35.1096 25.9463 35.1221 26.5916C35.1347 27.2305 35.1284 27.8716 35.0908 28.5095C35.0667 28.9164 34.7697 29.2322 34.3378 29.2343C32.8513 29.2408 31.3639 29.2407 29.8772 29.2406L29.32 29.2406L28.6023 29.2405C27.6459 29.2403 26.6891 29.2401 25.7329 29.2427C25.604 29.2432 25.4753 29.2503 25.3466 29.2574H25.3466H25.3466H25.3465H25.3465L25.3464 29.2574C25.2289 29.2639 25.1113 29.2704 24.9936 29.2719C24.3598 29.2803 23.9969 28.885 24.0074 28.3025C24.0123 28.0227 24.0116 27.7428 24.0109 27.4629V27.4627C24.01 27.0959 24.0091 26.729 24.021 26.3625C24.0356 25.9337 24.3012 25.6378 24.7499 25.6336C25.895 25.6238 27.04 25.6254 28.1851 25.6271C28.6213 25.6277 29.0575 25.6284 29.4936 25.6284ZM20.846 33.2042C20.8554 32.8549 20.5751 32.377 20.0616 32.4492C19.6245 32.4492 19.294 32.7713 19.294 33.2053C19.294 33.5797 19.6381 33.9927 20.0376 33.9812C20.4517 33.9697 20.8334 33.7031 20.846 33.2042ZM7.8889 15.3683C7.8855 15.3626 7.88212 15.3569 7.87891 15.3513C7.88405 15.361 7.8896 15.3702 7.89505 15.3793C7.89846 15.385 7.90183 15.3907 7.90505 15.3963C7.8999 15.3866 7.89436 15.3774 7.8889 15.3683Z" fill="black"/>
<path d="M30.3517 10.8995C30.335 9.11745 31.8357 7.55816 33.6627 7.59058C35.5838 7.62405 36.8806 9.03065 36.9737 10.7175C37.0898 12.8248 35.427 14.153 33.7275 14.2157C31.7991 14.2868 30.335 12.5968 30.3517 10.8995ZM33.5843 12.646C34.6332 12.6481 35.3527 11.9401 35.4113 11.0449C35.4845 9.93736 34.6217 9.23772 33.8645 9.19693C32.7905 9.14046 31.9591 9.84637 31.9141 10.7426C31.8639 11.7351 32.6953 12.6962 33.5843 12.6449V12.646Z" fill="white"/>
<path d="M7.87907 15.3512C7.37709 15.347 6.87406 15.3418 6.37207 15.3408C6.10435 15.3408 5.868 15.278 5.68603 15.0573C5.49256 14.8241 5.42876 14.5658 5.53334 14.2897C5.63269 14.0304 5.82094 13.839 6.10958 13.7825C6.22357 13.7606 6.34174 13.7491 6.45887 13.7491C7.95541 13.747 9.45195 13.7459 10.9485 13.7491C11.2748 13.7491 11.5781 13.8275 11.759 14.1339C12.079 14.6746 11.7192 15.3313 11.0332 15.3366C10.5762 15.3408 10.1181 15.3387 9.66111 15.3397C9.59732 15.3397 9.53352 15.3449 9.47601 15.3481C9.47601 15.5834 9.47601 15.8072 9.47601 16.031C9.47705 18.3119 9.48646 20.5928 9.46868 22.8737C9.46659 23.1351 9.51784 23.4227 9.34319 23.6779C9.16959 23.931 8.82761 24.0931 8.49714 24.0104C8.18549 23.932 7.94705 23.7103 7.91986 23.3547C7.90208 23.1267 7.90312 22.8977 7.90312 22.6687C7.90312 20.2435 7.90312 17.8193 7.90521 15.3941C7.89685 15.3795 7.88744 15.3648 7.87907 15.3491V15.3512Z" fill="white"/>
</svg>
