<svg width="43" height="43" viewBox="0 0 43 43" fill="none" xmlns="http://www.w3.org/2000/svg">
<rect x="1.88184" y="15.2291" width="39.4167" height="26.875" fill="white"/>
<rect x="8.15332" y="1.79175" width="26.875" height="25.0833" fill="#FF002E"/>
<path d="M7.25716 5.375H8.15299V14.3333H1.88216C1.38945 14.3333 0.986328 14.7365 0.986328 15.2292V42.1042C0.986328 42.5969 1.38945 43 1.88216 43H41.2988C41.7915 43 42.1947 42.5969 42.1947 42.1042V15.2292C42.1947 14.7365 41.7915 14.3333 41.2988 14.3333H35.028V5.375H35.9238C36.4165 5.375 36.8197 4.97187 36.8197 4.47917V0.895833C36.8197 0.403125 36.4165 0 35.9238 0H32.3405C31.8478 0 31.4447 0.403125 31.4447 0.895833V1.79167H11.7363V0.895833C11.7363 0.403125 11.3332 0 10.8405 0H7.25716C6.76445 0 6.36133 0.403125 6.36133 0.895833V4.47917C6.36133 4.97187 6.76445 5.375 7.25716 5.375ZM9.94466 25.0833V26.875H8.15299V25.0833H9.94466ZM40.403 16.125V41.2083H2.77799V16.125H8.15299V23.2917H7.25716C6.76445 23.2917 6.36133 23.6948 6.36133 24.1875V27.7708C6.36133 28.2635 6.76445 28.6667 7.25716 28.6667H10.8405C11.3332 28.6667 11.7363 28.2635 11.7363 27.7708V26.875H31.4447V27.7708C31.4447 28.2635 31.8478 28.6667 32.3405 28.6667H35.9238C36.4165 28.6667 36.8197 28.2635 36.8197 27.7708V24.1875C36.8197 23.6948 36.4165 23.2917 35.9238 23.2917H35.028V16.125H40.403ZM33.2363 23.2917H32.3405C31.8478 23.2917 31.4447 23.6948 31.4447 24.1875V25.0833H30.0203L22.8536 17.9167L27.8613 12.909L33.2363 18.284V23.2917ZM35.028 25.0833V26.875H33.2363V25.0833H35.028ZM27.494 25.0833H11.7363V24.1875C11.7363 23.6948 11.3332 23.2917 10.8405 23.2917H9.94466V18.284L15.3197 12.909L27.494 25.0833ZM33.2363 1.79167H35.028V3.58333H33.2363V1.79167ZM11.7363 4.47917V3.58333H31.4447V4.47917C31.4447 4.97187 31.8478 5.375 32.3405 5.375H33.2363V15.7577L28.4974 11.0188C28.148 10.6694 27.5836 10.6694 27.2342 11.0188L21.5995 16.6535L15.9647 11.0188C15.6153 10.6694 15.0509 10.6694 14.7015 11.0188L9.96258 15.7577V5.375H10.8584C11.3511 5.375 11.7542 4.97187 11.7542 4.47917H11.7363ZM8.15299 1.79167H9.94466V3.58333H8.15299V1.79167Z" fill="#010101"/>
<path d="M9.04915 33.5131H24.4396C24.8069 34.5523 25.7923 35.3048 26.9658 35.3048C28.1394 35.3048 29.1158 34.5523 29.4921 33.5131H34.1325C34.6252 33.5131 35.0283 33.11 35.0283 32.6173C35.0283 32.1246 34.6252 31.7215 34.1325 31.7215H29.4921C29.1248 30.6823 28.1394 29.9298 26.9658 29.9298C25.7923 29.9298 24.8158 30.6823 24.4396 31.7215H9.04915C8.55645 31.7215 8.15332 32.1246 8.15332 32.6173C8.15332 33.11 8.55645 33.5131 9.04915 33.5131ZM26.9658 31.7215C27.4585 31.7215 27.8617 32.1246 27.8617 32.6173C27.8617 33.11 27.4585 33.5131 26.9658 33.5131C26.4731 33.5131 26.07 33.11 26.07 32.6173C26.07 32.1246 26.4731 31.7215 26.9658 31.7215Z" fill="#010101"/>
<path d="M9.04915 38.8881H13.6896C14.0569 39.9273 15.0423 40.6798 16.2158 40.6798C17.3894 40.6798 18.3658 39.9273 18.7421 38.8881H34.1325C34.6252 38.8881 35.0283 38.485 35.0283 37.9923C35.0283 37.4996 34.6252 37.0965 34.1325 37.0965H18.7421C18.3748 36.0573 17.3894 35.3048 16.2158 35.3048C15.0423 35.3048 14.0658 36.0573 13.6896 37.0965H9.04915C8.55645 37.0965 8.15332 37.4996 8.15332 37.9923C8.15332 38.485 8.55645 38.8881 9.04915 38.8881ZM16.2158 37.0965C16.7085 37.0965 17.1117 37.4996 17.1117 37.9923C17.1117 38.485 16.7085 38.8881 16.2158 38.8881C15.7231 38.8881 15.32 38.485 15.32 37.9923C15.32 37.4996 15.7231 37.0965 16.2158 37.0965Z" fill="#010101"/>
<circle cx="21.4863" cy="8.49976" r="1.5" fill="white"/>
<path d="M21.5908 11.3503C23.0689 11.3503 24.2783 10.141 24.2783 8.66284C24.2783 7.18472 23.0689 5.97534 21.5908 5.97534C20.1127 5.97534 18.9033 7.18472 18.9033 8.66284C18.9033 10.141 20.1127 11.3503 21.5908 11.3503ZM21.5908 7.76701C22.0835 7.76701 22.4867 8.17013 22.4867 8.66284C22.4867 9.15555 22.0835 9.55868 21.5908 9.55868C21.0981 9.55868 20.695 9.15555 20.695 8.66284C20.695 8.17013 21.0981 7.76701 21.5908 7.76701Z" fill="black"/>
</svg>
