<svg width="44" height="43" viewBox="0 0 44 43" fill="none" xmlns="http://www.w3.org/2000/svg">
<path d="M38.0802 7.5099C38.0802 7.5099 48.0702 19.5399 36.3802 27.5599C36.3802 27.5599 28.3202 29.3699 24.9202 30.0299C24.9202 30.0299 23.3702 33.0399 25.5702 35.3799C25.5702 35.3799 27.2602 42.1799 20.1202 40.7599C20.1202 40.7599 7.70021 39.2399 2.79021 26.5999C2.79021 26.6099 -3.12979 6.3399 20.1202 0.959903C20.1202 0.959903 30.2402 -0.510098 38.0802 7.5099Z" fill="white"/>
<path d="M35.1001 20.1498C36.7459 20.1498 38.0801 18.8156 38.0801 17.1698C38.0801 15.524 36.7459 14.1898 35.1001 14.1898C33.4543 14.1898 32.1201 15.524 32.1201 17.1698C32.1201 18.8156 33.4543 20.1498 35.1001 20.1498Z" fill="#ED1E35"/>
<path d="M27.2798 11.0199C28.9256 11.0199 30.2598 9.68575 30.2598 8.03994C30.2598 6.39413 28.9256 5.05994 27.2798 5.05994C25.634 5.05994 24.2998 6.39413 24.2998 8.03994C24.2998 9.68575 25.634 11.0199 27.2798 11.0199Z" fill="#ED1E35"/>
<path d="M15.2505 12.3299C16.8963 12.3299 18.2305 10.9957 18.2305 9.34987C18.2305 7.70406 16.8963 6.36987 15.2505 6.36987C13.6047 6.36987 12.2705 7.70406 12.2705 9.34987C12.2705 10.9957 13.6047 12.3299 15.2505 12.3299Z" fill="#ED1E35"/>
<path d="M9.0298 21.4499C10.6756 21.4499 12.0098 20.1157 12.0098 18.4699C12.0098 16.8241 10.6756 15.4899 9.0298 15.4899C7.384 15.4899 6.0498 16.8241 6.0498 18.4699C6.0498 20.1157 7.384 21.4499 9.0298 21.4499Z" fill="#ED1E35"/>
<path d="M24.2902 18.6299L23.5502 20.8299C23.5502 20.8299 23.6502 25.0599 21.2702 25.8399C21.2702 25.8399 19.8002 27.0099 17.5902 27.1799C17.5902 27.1799 9.8302 40.4499 2.2002 40.7799C2.2002 40.7799 2.6602 32.2399 15.9002 25.7099C15.9002 25.7099 16.1402 16.8899 24.3002 18.6299H24.2902Z" fill="#ED1E35"/>
<path d="M36.2702 4.87985C32.9902 2.24985 29.0502 0.609845 24.8802 0.139845C20.7102 -0.330155 16.5002 0.389845 12.7102 2.21985C9.91022 3.66985 7.40022 5.73984 5.46022 8.22984C3.52022 10.7198 2.11022 13.6498 1.39022 16.7198C0.790215 19.5698 0.860215 22.5698 1.59022 25.3898C2.30022 28.1398 3.63022 30.7298 5.46022 32.8998C4.33021 34.1498 3.30022 35.4998 2.39022 36.9198C0.940215 39.2198 0.640215 40.7398 1.49022 41.5898C1.65022 41.7398 1.84022 41.8598 2.05022 41.9398C2.26022 42.0198 2.49022 42.0498 2.73022 42.0398C4.50022 41.7198 6.15022 40.9298 7.49022 39.7698C8.37022 39.1298 9.31021 38.3598 10.2402 37.5298C11.8502 38.7498 13.5902 39.7898 15.4302 40.6298C17.4202 41.5498 19.5502 42.0698 21.7502 42.1898C22.1002 42.1898 22.4602 42.1698 22.8002 42.1198C23.7302 42.0498 24.6102 41.6598 25.2902 41.0398C25.9702 40.4098 26.4302 39.5598 26.5702 38.6298C26.7102 37.3098 26.4202 35.9598 25.7502 34.8098C25.2402 33.9598 25.0102 32.9498 25.1002 31.9998C25.4802 30.3398 27.6502 30.1998 30.6502 30.1898C31.4902 30.2298 32.3402 30.1898 33.2002 30.0798C35.9002 29.5098 38.3802 28.0398 40.1702 25.9398C41.9602 23.8298 43.0202 21.1598 43.1502 18.3898C43.3502 13.6698 40.7802 8.61984 36.2702 4.88984V4.87985ZM24.1402 35.5898C24.6302 36.4198 24.8502 37.3598 24.7802 38.3098C24.7102 38.8498 24.4502 39.3498 24.0502 39.7198C23.6502 40.0898 23.1302 40.2998 22.5802 40.3198C20.3702 40.4198 18.1602 39.9498 16.1602 38.9698C14.5402 38.2398 12.9902 37.3398 11.5502 36.2998C11.6602 36.1898 11.7602 36.0898 11.8702 35.9898L12.3302 35.5298C14.7102 33.2698 16.7202 30.6698 18.2902 27.7998C18.4802 27.8198 18.6502 27.8198 18.8502 27.8198H18.9602C20.3202 27.8598 21.6102 27.3598 22.6202 26.4598C23.6302 25.5698 24.2702 24.3298 24.4102 22.9898C24.4402 22.6298 24.4602 22.2598 24.4502 21.8998C24.4302 21.4798 24.4602 21.0698 24.5302 20.6798C24.7002 19.9798 25.4002 19.0098 26.1702 19.0098C26.2402 19.0098 26.3002 19.0098 26.3702 19.0298C26.6102 19.0698 26.8402 19.0298 27.0402 18.8798C27.2402 18.7498 27.3702 18.5398 27.4102 18.3198C27.4302 18.2598 27.4302 18.1898 27.4302 18.1298C27.4302 17.9198 27.3502 17.7198 27.2202 17.5698C27.0902 17.4198 26.9002 17.2998 26.7002 17.2698C24.6502 16.8798 22.5202 17.0098 20.5302 17.6598C18.9902 18.1798 17.6502 19.1398 16.6602 20.4298C15.6802 21.7098 15.1102 23.2398 15.0102 24.8598C12.2302 26.4398 9.70022 28.4098 7.49022 30.7098C7.19022 31.0098 6.90022 31.3098 6.62022 31.5998C5.02022 29.6498 3.86022 27.3298 3.24022 24.8798C2.61022 22.3398 2.57022 19.6498 3.12022 17.0898C3.78022 14.2798 5.07022 11.5898 6.84022 9.30984C8.62022 7.02985 10.9102 5.12985 13.4802 3.80984C16.1702 2.47985 19.1802 1.77984 22.1802 1.77984C22.2602 1.77984 22.3302 1.77984 22.4102 1.77984C27.0102 1.77984 31.5102 3.36985 35.0802 6.25985C39.1602 9.62984 41.4902 14.1298 41.3102 18.2898C41.2102 20.6498 40.3102 22.9398 38.7902 24.7298C37.2702 26.5298 35.1602 27.7798 32.8502 28.2698C32.1202 28.3598 31.3702 28.3898 30.5902 28.3598H30.5502C27.7902 28.3598 24.0402 28.3698 23.3102 31.5998C23.1202 32.9698 23.4002 34.3898 24.1002 35.5798L24.1402 35.5898ZM15.5202 26.6098C15.6202 26.7498 15.7302 26.8798 15.8602 26.9998C16.0502 27.1698 16.2702 27.3198 16.5102 27.4298C15.8602 28.6198 15.0902 29.7598 14.2202 30.8098C13.4002 30.3598 12.7202 29.6798 12.2702 28.8698C13.2902 28.0298 14.3802 27.2798 15.5302 26.6298L15.5202 26.6098ZM16.9002 24.5498C17.0402 23.3698 17.5102 22.2698 18.2602 21.3498C19.0102 20.4298 20.0002 19.7498 21.1202 19.3698C21.8602 19.1298 22.6302 18.9698 23.4102 18.8998C23.1302 19.3198 22.9302 19.7998 22.8102 20.2898C22.7002 20.8198 22.6502 21.3698 22.6702 21.9098C22.6702 22.2098 22.6702 22.5098 22.6302 22.7998C22.5302 23.6998 22.1002 24.5198 21.4202 25.1198C20.7402 25.7198 19.8602 26.0298 18.9602 26.0198C18.8402 26.0198 18.7202 26.0198 18.5802 26.0098C18.3902 26.0098 18.2202 25.9698 18.1002 25.9598H18.0202C17.8102 25.9198 17.5902 25.8698 17.3602 25.8098C17.2502 25.7898 17.1602 25.7398 17.0902 25.6798L17.0402 25.6398C16.9102 25.4498 16.8402 25.2298 16.8402 24.9998C16.8502 24.8598 16.8702 24.7298 16.9002 24.5498ZM7.67022 33.1598C8.02022 32.7798 8.40022 32.3998 8.80022 31.9898C9.50022 31.2998 10.1702 30.6598 10.8702 30.0398C11.4102 30.9098 12.1502 31.6498 13.0202 32.1898C12.4302 32.8498 11.7802 33.5498 11.0702 34.2698C10.7002 34.6498 10.3202 35.0098 9.96022 35.3498C9.64022 35.6498 9.33022 35.9298 9.03022 36.1898C5.68022 39.1598 3.36022 40.2498 2.79022 40.2798C2.79022 39.7098 3.82022 37.4798 6.84022 34.0698C7.06021 33.8098 7.32022 33.5098 7.66022 33.1598H7.67022Z" fill="#231F20"/>
<path d="M9.03012 14.3098C8.20012 14.3098 7.41012 14.5498 6.72012 15.0098C6.03012 15.4698 5.50012 16.1098 5.19012 16.8798C4.87012 17.6398 4.79012 18.4698 4.95012 19.2798C5.11012 20.0898 5.50012 20.8298 6.09012 21.4098C6.67012 21.9898 7.41012 22.3898 8.22012 22.5498C8.49012 22.5998 8.76012 22.6298 9.03012 22.6298C9.57012 22.6298 10.1101 22.5198 10.6201 22.3098C11.3801 21.9898 12.0301 21.4598 12.4901 20.7798C12.9501 20.0998 13.1901 19.2898 13.1901 18.4698C13.1901 17.3598 12.7501 16.3198 11.9701 15.5298C11.1901 14.7398 10.1401 14.3098 9.03012 14.3098ZM11.3901 18.4698C11.3901 19.0998 11.1401 19.6898 10.7001 20.1398C10.2601 20.5898 9.66012 20.8298 9.03012 20.8298C8.56012 20.8298 8.11012 20.6898 7.72012 20.4298C7.33012 20.1698 7.03012 19.8098 6.85012 19.3698C6.67012 18.9398 6.63012 18.4698 6.72012 18.0098C6.81012 17.5498 7.03012 17.1298 7.36012 16.7998C7.69012 16.4698 8.11012 16.2498 8.57012 16.1498C8.72012 16.1198 8.88012 16.0998 9.03012 16.0998C9.34012 16.0998 9.64012 16.1598 9.93012 16.2798C10.3601 16.4598 10.7301 16.7598 10.9901 17.1498C11.2501 17.5398 11.3901 17.9898 11.3901 18.4598V18.4698Z" fill="#231F20"/>
<path d="M30.7401 10.3499C31.2001 9.65988 31.4401 8.85988 31.4401 8.03988C31.4401 6.92988 31.0001 5.88988 30.2201 5.09988C29.4401 4.31988 28.3901 3.87988 27.2801 3.87988C26.4501 3.87988 25.6601 4.11988 24.9701 4.57988C24.2801 5.03988 23.7501 5.67988 23.4401 6.44988C23.1201 7.20988 23.0401 8.03988 23.2001 8.84988C23.3601 9.65988 23.7601 10.3999 24.3401 10.9799C24.9201 11.5599 25.6601 11.9599 26.4701 12.1199C26.7401 12.1699 27.0101 12.1999 27.2801 12.1999C27.8201 12.1999 28.3601 12.0899 28.8701 11.8799C29.6301 11.5599 30.2801 11.0299 30.7401 10.3499ZM29.6401 8.03988C29.6401 8.66988 29.3901 9.25988 28.9501 9.69988C28.5101 10.1399 27.9101 10.3899 27.2801 10.3899C26.8101 10.3899 26.3601 10.2499 25.9701 9.98988C25.5801 9.72988 25.2801 9.36988 25.1001 8.92988C24.9201 8.49988 24.8701 8.02988 24.9701 7.56988C25.0601 7.10988 25.2801 6.68988 25.6201 6.35988C25.9501 6.02988 26.3701 5.80988 26.8301 5.70988C26.9801 5.67988 27.1401 5.65988 27.2901 5.65988C27.6001 5.65988 27.9001 5.71988 28.1901 5.83988C28.6201 6.01988 28.9901 6.31988 29.2501 6.70988C29.5101 7.09988 29.6501 7.54988 29.6501 8.01988L29.6401 8.03988Z" fill="#231F20"/>
<path d="M31.0204 17.9799C31.1804 18.7899 31.5704 19.5299 32.1604 20.1099C32.7404 20.6899 33.4804 21.0899 34.2904 21.2499C34.5604 21.2999 34.8304 21.3299 35.1004 21.3299C35.6404 21.3299 36.1804 21.2199 36.6904 21.0099C37.4504 20.6899 38.1004 20.1599 38.5604 19.4799C39.0204 18.7999 39.2604 17.9899 39.2604 17.1699C39.2604 16.0599 38.8204 15.0199 38.0404 14.2299C37.2604 13.4499 36.2104 13.0099 35.1004 13.0099C34.2704 13.0099 33.4804 13.2499 32.7904 13.7099C32.1004 14.1699 31.5704 14.8099 31.2604 15.5799C30.9404 16.3399 30.8604 17.1699 31.0204 17.9799ZM32.7904 16.7099C32.8804 16.2499 33.1004 15.8299 33.4304 15.4999C33.7604 15.1699 34.1804 14.9499 34.6404 14.8499C34.7904 14.8199 34.9504 14.7999 35.1004 14.7999C35.4104 14.7999 35.7104 14.8599 36.0004 14.9799C36.4304 15.1599 36.8004 15.4599 37.0604 15.8499C37.3204 16.2399 37.4604 16.6899 37.4604 17.1599C37.4604 17.7899 37.2104 18.3799 36.7704 18.8199C36.3304 19.2599 35.7304 19.5099 35.1004 19.5099C34.6304 19.5099 34.1804 19.3699 33.7904 19.1099C33.4004 18.8499 33.1004 18.4799 32.9204 18.0499C32.7404 17.6199 32.6904 17.1499 32.7904 16.6899V16.7099Z" fill="#231F20"/>
<path d="M15.5501 5.18982C14.7201 5.18982 13.9301 5.42982 13.2401 5.88982C12.5501 6.34982 12.0201 6.98982 11.7101 7.75982C11.3901 8.51982 11.3101 9.34982 11.4701 10.1598C11.6301 10.9698 12.0301 11.7098 12.6101 12.2898C13.1901 12.8698 13.9301 13.2698 14.7401 13.4298C15.0101 13.4798 15.2801 13.5098 15.5501 13.5098C16.0901 13.5098 16.6301 13.3998 17.1401 13.1898C17.9001 12.8698 18.5501 12.3398 19.0101 11.6598C19.4701 10.9698 19.7101 10.1698 19.7101 9.34982C19.7101 8.23982 19.2701 7.19982 18.4901 6.40982C17.7101 5.61982 16.6601 5.18982 15.5501 5.18982ZM17.9101 9.34982C17.9101 9.97982 17.6601 10.5698 17.2201 11.0098C16.7801 11.4498 16.1801 11.6998 15.5501 11.6998C15.0801 11.6998 14.6301 11.5598 14.2401 11.2998C13.8501 11.0398 13.5501 10.6798 13.3701 10.2398C13.1901 9.80982 13.1401 9.33982 13.2401 8.87982C13.3301 8.41982 13.5501 7.99982 13.8801 7.66982C14.2101 7.33982 14.6301 7.11982 15.0901 7.01982C15.2401 6.98982 15.4001 6.96982 15.5501 6.96982C15.8601 6.96982 16.1601 7.02982 16.4501 7.14982C16.8801 7.32982 17.2501 7.62982 17.5101 8.01982C17.7701 8.40982 17.9101 8.85982 17.9101 9.32982V9.34982Z" fill="#231F20"/>
</svg>
