<svg width="33" height="33" viewBox="0 0 33 33" fill="none" xmlns="http://www.w3.org/2000/svg">
<path d="M32.7524 16.092C32.7522 12.9094 31.8082 9.79829 30.04 7.15212C28.2717 4.50596 25.7584 2.44356 22.818 1.22572C19.8777 0.00788164 16.6422 -0.310709 13.5207 0.310236C10.3993 0.931181 7.53205 2.46378 5.2816 4.71422C3.03116 6.96467 1.49856 9.8319 0.877619 12.9533C0.256673 16.0748 0.575264 19.3103 1.79311 22.2507C3.01095 25.191 5.07334 27.7043 7.71951 29.4726C10.3657 31.2409 13.4768 32.1848 16.6594 32.185H16.9424V19.654H13.4854V15.625H16.9424V12.66C16.9424 9.22098 19.0424 7.34998 22.1094 7.34998C23.1448 7.34622 24.1797 7.39897 25.2094 7.50798V11.1H23.0934C21.4244 11.1 21.1014 11.893 21.1014 13.057V15.623H25.0914L24.5674 19.654H21.0974V31.563C24.4558 30.5983 27.4092 28.5671 29.5117 25.7763C31.6142 22.9854 32.7517 19.5862 32.7524 16.092Z" fill="white"/>
</svg>
