<svg width="36" height="34" viewBox="0 0 36 34" fill="none" xmlns="http://www.w3.org/2000/svg">
<path d="M1 18H34V33H1V18Z" fill="white"/>
<path d="M1 4C1 2.34315 2.34315 1 4 1H31C32.6569 1 34 2.34315 34 4V18H1V4Z" fill="#FF002E"/>
<path d="M35.3726 30.4608C35.3043 30.6566 35.2203 30.8471 35.1687 31.0493C34.7516 32.6837 33.2964 33.9287 31.8569 33.9723C31.7074 33.9766 31.558 33.9862 31.4085 33.9862C22.2207 33.9862 13.0338 33.9766 3.84605 34C2.71845 34.0032 1.77817 33.5935 1.01506 32.688C0.373754 31.9261 0.00373231 30.9971 0.00373231 29.9C0.0055778 21.2159 -0.0128771 12.5308 0.0184962 3.84671C0.02311 2.55596 0.632122 1.51208 1.5521 0.759765C2.21279 0.219204 2.96852 0.00425699 3.77223 0.00425699C13.0292 0.0031929 22.2853 0.00744928 31.5423 6.07409e-07C33.3481 -0.00106349 34.9306 1.39609 35.2462 3.31253C35.2637 3.41681 35.3292 3.51045 35.3726 3.60835V30.4598V30.4608ZM17.5904 32.2879V32.2932C22.241 32.2932 26.8907 32.3006 31.5414 32.2804C31.928 32.2783 32.3488 32.1698 32.6948 31.9718C33.6028 31.4515 33.9054 30.5034 33.9054 29.3893C33.9054 21.2117 33.9054 13.0331 33.9036 4.85547C33.9036 4.5937 33.8657 4.33194 33.8556 4.0691C33.8002 2.64428 32.7806 1.70575 31.6142 1.70362C22.3139 1.69191 13.0135 1.69617 3.71225 1.6983C2.461 1.6983 1.46167 2.78048 1.46444 4.33194C1.47736 12.7755 1.47459 21.2191 1.46167 29.6627C1.46167 30.1937 1.57148 30.6566 1.80032 31.0918C2.18603 31.825 2.75444 32.2772 3.50186 32.2794C8.19772 32.2953 12.8945 32.2868 17.5904 32.2868V32.2879Z" fill="black"/>
<path d="M4.42297 10.8697C4.42297 10.2728 4.41005 9.67474 4.42574 9.07885C4.47095 7.29116 5.66775 5.45773 7.33885 5.23001C8.57256 5.06188 9.83119 5.12147 11.0787 5.11615C11.5346 5.11402 11.7708 5.49178 11.7468 6.03766C11.7293 6.42925 11.3842 6.79317 11.0169 6.79423C10.0619 6.79742 9.10683 6.77295 8.15271 6.80168C6.85902 6.83892 6.19372 7.62742 5.88368 8.93306C5.86338 9.01819 5.88552 9.11715 5.88552 9.20867C5.88737 10.376 5.89014 11.5433 5.88829 12.7106C5.88829 13.1309 5.66868 13.4108 5.35956 13.5363C5.09012 13.6449 4.781 13.6247 4.58906 13.3097C4.50417 13.1714 4.43958 12.9862 4.43497 12.8191C4.41743 12.17 4.42758 11.5188 4.42758 10.8687C4.42666 10.8687 4.42574 10.8687 4.42389 10.8687L4.42297 10.8697Z" fill="white"/>
<path d="M25.9587 28.8839C25.4069 28.8839 24.8542 28.8935 24.3024 28.8807C23.8752 28.8712 23.5624 28.5189 23.5596 28.0752C23.5559 27.5794 23.8743 27.2005 24.3246 27.1973C25.2335 27.1888 26.1433 27.1633 27.0503 27.2016C28.416 27.2601 29.4818 26.1152 29.4836 24.4137C29.4836 23.4049 29.4809 22.3972 29.4846 21.3884C29.4873 20.7468 29.7143 20.4254 30.1526 20.4212C30.6454 20.4169 30.9499 20.8 30.9508 21.4342C30.9526 22.3898 30.9582 23.3442 30.9499 24.2998C30.9296 26.6259 29.9524 28.2689 27.8817 28.8222C27.2718 28.985 26.601 28.8478 25.9587 28.8478C25.9587 28.8595 25.9587 28.8722 25.9587 28.8839Z" fill="black"/>
</svg>
