<svg width="30" height="45" viewBox="0 0 30 45" fill="none" xmlns="http://www.w3.org/2000/svg">
<rect x="1.11133" y="6.66675" width="27.7778" height="36.6667" fill="white"/>
<path d="M29.4443 6.66675H21.6665C22.9998 11.5556 27.4072 13.5186 29.4443 13.889V6.66675Z" fill="#FF002E"/>
<path d="M22.2222 23.3333L15 30.5555L9.44441 24.9999C6.3333 22.3333 7.77774 19.4444 8.88885 18.3333C11.5555 16.1111 14.074 17.7777 15 18.8888L17.7777 17.2222C23.1111 17.6666 22.9629 21.4814 22.2222 23.3333Z" fill="#FF002E"/>
<path d="M1.11117 38.8889H7.77783C6.63497 33.624 2.8572 31.51 1.11117 31.1111V38.8889Z" fill="#FF002E"/>
<path d="M18.4702 16.5308C17.1871 16.5544 15.9541 17.0327 14.9908 17.8805C14.0532 17.0123 12.8169 16.5392 11.5392 16.5599C10.2616 16.5806 9.04118 17.0934 8.13225 17.9916C6.38934 19.7345 5.94813 22.8222 8.47801 25.3521L14.4923 31.3657C14.6249 31.4982 14.8047 31.5727 14.9922 31.5727C15.1797 31.5727 15.3595 31.4982 15.4921 31.3657L21.5064 25.3521C24.0574 22.801 23.6275 19.7012 21.8853 17.959C21.4387 17.5071 20.9069 17.1482 20.3208 16.9031C19.7346 16.6579 19.1056 16.5314 18.4702 16.5308ZM20.5037 24.3523L14.9886 29.8674L9.47355 24.3523C7.51287 22.3916 7.91801 20.1997 9.1278 18.992C9.4422 18.6715 9.81676 18.4163 10.23 18.2408C10.6433 18.0654 11.0871 17.9732 11.5361 17.9696H11.5509C12.1068 17.9911 12.6529 18.1232 13.1572 18.3581C13.6615 18.593 14.1139 18.9261 14.488 19.3378C14.6206 19.4704 14.8005 19.5448 14.9879 19.5448C15.1754 19.5448 15.3552 19.4704 15.4878 19.3378C15.8672 18.9195 16.326 18.581 16.8376 18.3418C17.3491 18.1027 17.9032 17.9677 18.4674 17.9449C18.9165 17.946 19.361 18.0363 19.775 18.2104C20.189 18.3846 20.5643 18.6392 20.8792 18.9595C22.0897 20.1665 22.4856 22.369 20.5037 24.3523Z" fill="black"/>
<path d="M29.2929 5.64788H22.9124V0.706919C22.9124 0.598774 22.8875 0.492075 22.8398 0.395031C22.7921 0.297986 22.7227 0.213182 22.6371 0.147143C22.5515 0.0811036 22.4518 0.0355886 22.3458 0.0140995C22.2398 -0.00738958 22.1303 -0.00428011 22.0257 0.0231887L0.531005 5.67192V5.68394C0.380511 5.72086 0.246608 5.80688 0.150448 5.92839C0.0542874 6.0499 0.00135081 6.19999 0 6.35494V43.9311C0 44.1186 0.0744941 44.2985 0.207094 44.4311C0.339694 44.5637 0.519539 44.6382 0.707064 44.6382H29.2929C29.4805 44.6382 29.6603 44.5637 29.7929 44.4311C29.9255 44.2985 30 44.1186 30 43.9311V6.35494C30 6.16742 29.9255 5.98757 29.7929 5.85497C29.6603 5.72237 29.4805 5.64788 29.2929 5.64788ZM1.41483 38.2173V32.3275C4.57117 33.4298 6.51913 35.3679 7.33649 38.2173H1.41483ZM8.85526 38.4761C8.00184 34.7011 5.50166 32.1366 1.41483 30.8434V7.06201H21.207C22.1141 10.6963 24.5945 13.1724 28.5866 14.436V38.4761H8.85526ZM28.5859 12.9526C25.4295 11.8495 23.4816 9.91218 22.6649 7.06201H28.5859V12.9526ZM21.4983 5.64788H6.18115L21.4983 1.62398V5.64788ZM1.41766 43.2241V39.8903H28.5859V43.2241H1.41766Z" fill="black"/>
</svg>
