<svg width="264" height="37" viewBox="0 0 264 37" fill="none" xmlns="http://www.w3.org/2000/svg">
<path d="M45.3618 17.2422H39.0974V26.0601H34.0381V3.94832C34.0381 2.5233 35.1666 1.28955 36.5917 1.28955H45.0079C50.2489 1.28955 52.9842 4.09178 52.9842 9.26587C52.9842 14.1435 50.3254 17.2422 45.3713 17.2422H45.3618ZM44.0898 12.7663C46.6433 12.8045 47.9153 11.5995 47.9153 9.19892C47.9153 6.79837 46.7103 5.59332 44.348 5.59332H39.1739V12.7663H44.0898ZM55.2317 16.1136C55.3752 9.88752 58.6939 6.78881 65.14 6.78881H65.8286V11.8194H64.1931C61.4961 11.8194 60.1476 13.2445 60.1476 16.0467V26.0601H55.2317V16.1136ZM85.4633 16.5153C85.4633 23.1431 82.5176 26.4905 76.6836 26.4905C70.8496 26.4905 67.9422 23.1431 67.9422 16.5153C67.9422 9.88752 70.8592 6.50189 76.6836 6.50189C82.5081 6.50189 85.4633 9.82057 85.4633 16.5153ZM72.8581 16.5153C72.8963 20.2644 74.1683 22.158 76.6454 22.158C79.1224 22.158 80.3562 20.1879 80.3944 16.3623C80.3944 12.6132 79.1511 10.7578 76.6836 10.7578C74.2161 10.7578 72.8581 12.6898 72.8581 16.5153ZM92.6363 3.6614V26.0601H87.7969V1.28955H90.3122C91.5842 1.28955 92.6458 2.37984 92.6458 3.6614H92.6363ZM112.74 16.5153C112.74 23.1431 109.794 26.4905 103.96 26.4905C98.1259 26.4905 95.2185 23.1431 95.2185 16.5153C95.2185 9.88752 98.1355 6.50189 103.96 6.50189C109.784 6.50189 112.74 9.82057 112.74 16.5153ZM100.134 16.5153C100.173 20.2644 101.445 22.158 103.922 22.158C106.399 22.158 107.632 20.1879 107.671 16.3623C107.671 12.6132 106.427 10.7578 103.96 10.7578C101.492 10.7578 100.134 12.6898 100.134 16.5153ZM114.777 16.4388C114.777 10.031 117.761 6.82706 123.738 6.7123C129.744 6.67404 132.766 9.51453 132.766 15.3103V26.7105C132.766 31.5594 129.706 33.9982 123.547 34.1034C119.176 34.1034 116.412 32.0663 115.274 27.9825H120.63C120.955 29.3692 122.084 30.0196 124.092 30.0196C126.646 30.0196 127.956 28.5276 127.956 25.5437C127.956 25.5437 127.956 25.5819 127.956 23.5735C126.713 25.4672 124.857 26.414 122.457 26.414C117.321 26.414 114.767 23.0666 114.767 16.4388H114.777ZM127.965 16.5823C128.004 12.6898 126.655 10.7578 123.882 10.7578C121.108 10.7578 119.769 12.6898 119.769 16.5823C119.874 20.2931 121.194 22.158 123.815 22.158C126.435 22.158 127.822 20.3026 127.965 16.5823ZM138.266 1.28955C139.872 1.28955 140.638 2.09292 140.599 3.6614V5.08643H135.76V1.28955H138.275H138.266ZM138.266 6.78881C139.834 6.78881 140.599 7.55392 140.599 9.12241V26.0601H135.76V6.78881H138.275H138.266ZM152.143 26.4905C146.319 26.4905 143.325 23.1431 143.182 16.5153C143.182 9.92578 146.127 6.60709 152.066 6.50189C156.724 6.50189 159.498 8.57726 160.339 12.7663H155.06C154.477 11.456 153.453 10.7674 151.933 10.7674C149.379 10.7674 148.107 12.6993 148.107 16.5249C148.107 20.3505 149.456 22.2824 152.153 22.2441C153.281 22.2441 154.266 21.7659 155.07 20.8573C155.538 20.3791 156.093 20.1687 156.705 20.1687H160.349C159.479 24.0995 156.638 26.6148 152.153 26.5096L152.143 26.4905Z" fill="#EB2127"/>
<path d="M175.756 17.2422H169.492V26.0601H164.433V3.94832C164.433 2.5233 165.561 1.28955 166.986 1.28955H175.402C180.643 1.28955 183.379 4.09178 183.379 9.26586C183.379 14.1435 180.72 17.2422 175.766 17.2422H175.756ZM174.484 12.7663C177.038 12.8045 178.31 11.5995 178.31 9.19892C178.31 6.79837 177.105 5.59332 174.743 5.59332H169.568V12.7663H174.484ZM203.004 16.5153C203.004 23.1431 200.058 26.4905 194.224 26.4905C188.39 26.4905 185.483 23.1431 185.483 16.5153C185.483 9.88752 188.4 6.50189 194.224 6.50189C200.049 6.50189 203.004 9.82057 203.004 16.5153ZM190.399 16.5153C190.437 20.2644 191.709 22.158 194.186 22.158C196.663 22.158 197.897 20.1879 197.935 16.3623C197.935 12.6132 196.692 10.7578 194.224 10.7578C191.757 10.7578 190.399 12.6898 190.399 16.5153ZM213.744 22.5597C215.781 22.5597 216.805 21.9763 216.805 20.7426C216.805 19.7575 215.131 18.9541 211.812 18.3707C207.547 17.6056 205.366 15.712 205.328 12.6897C205.328 8.53901 208.608 6.56884 213.017 6.50189C215.494 6.50189 217.465 7.04703 218.918 8.13732C220.343 9.26586 221.099 10.8343 221.214 12.8332H218.153C217.025 12.795 216.298 12.3933 216.001 11.6282C215.676 10.7865 214.691 10.3179 213.084 10.3179C211.191 10.3179 210.244 10.8248 210.244 11.8099C210.244 12.795 211.478 13.5601 213.993 14.0287C217.273 14.6886 219.416 15.5207 220.477 16.5058C221.386 17.4526 221.826 18.6194 221.826 19.9296C221.826 24.6638 218.115 26.414 213.008 26.414C210.311 26.414 208.274 25.8306 206.963 24.702C205.51 23.6118 204.773 21.9381 204.773 19.7097H209.727C209.833 21.8233 211.363 22.5502 213.735 22.5502L213.744 22.5597ZM229.295 10.2509H228.788V20.9243C228.788 21.7277 229.266 22.1676 230.213 22.1676H231.705V25.8497C230.137 25.9932 228.425 25.9932 226.608 25.8115C224.791 25.6297 223.911 24.5012 223.949 22.3493V1.28955H226.464C227.736 1.28955 228.798 2.45635 228.798 3.72835V6.78881H231.715V7.84084C231.715 9.22761 230.663 10.2414 229.314 10.2414L229.295 10.2509ZM242.331 26.5001C236.506 26.3183 233.589 22.9327 233.589 16.3719C233.589 9.81101 236.535 6.54015 242.407 6.50189C248.528 6.50189 251.407 10.2509 251.044 17.7969H238.591C238.773 20.7426 240.045 22.2441 242.417 22.2441C243.545 22.2441 244.597 21.7659 245.544 20.8573C245.984 20.3791 246.529 20.1687 247.18 20.1687H250.747C249.695 24.2525 247.065 26.5096 242.331 26.5096V26.5001ZM238.649 14.3347H245.898C245.611 11.7812 244.406 10.4709 242.331 10.4709C240.255 10.4709 239.012 11.7812 238.649 14.3347ZM253.291 16.1232C253.434 9.89708 256.753 6.79837 263.199 6.79837H263.888V11.829H262.252C259.555 11.829 258.207 13.254 258.207 16.0563V26.0697H253.291V16.1232Z" fill="black"/>
<path d="M15.5989 6.66357C16.9761 6.66357 18.2959 6.93136 19.5583 7.45738C20.773 7.97383 21.8537 8.70069 22.8005 9.63795C23.7282 10.5848 24.4551 11.6655 24.9811 12.8801C25.5071 14.1426 25.7749 15.4624 25.7749 16.8396C25.7749 18.2168 25.5071 19.5366 24.9811 20.7991C24.4646 22.0137 23.7378 23.104 22.8005 24.0412C21.8537 24.9785 20.773 25.6958 19.5583 26.2218C18.2959 26.7478 16.9761 27.0156 15.5989 27.0156C14.4129 27.0156 13.2653 26.8148 12.1654 26.4226C11.1038 26.0401 10.1283 25.4949 9.23886 24.7872V37.0003H5.42285V16.8396C5.42285 15.4624 5.69064 14.1426 6.21666 12.8801C6.73311 11.6655 7.45997 10.5848 8.39723 9.63795C9.34406 8.71025 10.4248 7.9834 11.6394 7.45738C12.9018 6.93136 14.2217 6.66357 15.5989 6.66357ZM15.5989 23.1996C16.4596 23.1996 17.2821 23.037 18.0759 22.7023C18.841 22.3771 19.5105 21.918 20.0939 21.3346C20.6773 20.7417 21.1364 20.0722 21.4616 19.3166C21.7867 18.5228 21.9589 17.6908 21.9589 16.8396C21.9589 15.9884 21.7963 15.1563 21.4616 14.3625C21.1364 13.607 20.6773 12.9375 20.0939 12.3445C19.5105 11.7611 18.841 11.3021 18.0759 10.9769C17.2821 10.6517 16.4501 10.4796 15.5989 10.4796C14.7477 10.4796 13.9156 10.6422 13.1218 10.9769C12.3663 11.3021 11.6968 11.7611 11.1038 12.3445C10.5204 12.9375 10.0614 13.607 9.73618 14.3625C9.41101 15.1563 9.23886 15.9884 9.23886 16.8396C9.23886 17.6908 9.40144 18.5228 9.73618 19.3166C10.0614 20.0722 10.5204 20.7417 11.1038 21.3346C11.6968 21.918 12.3663 22.3771 13.1218 22.7023C13.9156 23.0274 14.7477 23.1996 15.5989 23.1996Z" fill="black"/>
<path d="M16.5169 11.3212C16.4882 12.0768 16.3256 12.8132 16.0387 13.5209C15.7135 14.2765 15.2545 14.946 14.6711 15.5389C14.0877 16.1223 13.4182 16.5814 12.6531 16.9066C11.8593 17.2318 11.0272 17.4039 10.176 17.4039C10.1186 17.4039 10.0613 17.4039 10.0039 17.4039C9.21006 17.3848 8.43538 17.2222 7.69896 16.9161C6.94341 16.591 6.27394 16.1319 5.68097 15.5485C5.33667 15.1946 5.04975 14.8025 4.79153 14.4008C4.61938 14.1235 4.44723 13.8366 4.31333 13.5305C3.98816 12.7367 3.81601 11.9046 3.81601 11.0535C3.81601 10.2023 3.97859 9.37021 4.31333 8.5764C4.6385 7.82085 5.09757 7.15138 5.68097 6.55841C6.27394 5.97501 6.94341 5.51595 7.69896 5.19077C8.49277 4.8656 9.32483 4.69345 10.176 4.69345C11.0272 4.69345 11.8593 4.85603 12.6531 5.19077C13.1026 5.38205 13.5138 5.64028 13.9059 5.92719C14.4511 5.84112 15.0058 5.78373 15.5701 5.78373C16.8516 5.78373 18.0758 6.01327 19.2235 6.41495C18.7357 5.47769 18.1236 4.61694 17.3777 3.85182C16.4308 2.92412 15.3501 2.19726 14.1355 1.67125C12.873 1.14523 11.5532 0.877441 10.176 0.877441C8.79881 0.877441 7.47899 1.14523 6.21655 1.67125C5.00193 2.1877 3.92121 2.91456 2.97438 3.85182C2.04668 4.79865 1.31982 5.87937 0.793806 7.09399C0.26779 8.35643 0 9.67625 0 11.0535V31.2142H3.81601V19.0011C4.16031 19.2784 4.52374 19.5175 4.89673 19.7471C5.48013 20.1009 6.09222 20.407 6.74257 20.6365C7.84242 21.0286 8.99009 21.2295 10.176 21.2295C10.7594 21.2295 11.3333 21.1721 11.8975 21.0764C12.6626 20.9426 13.4086 20.7417 14.1355 20.4357C15.3501 19.9192 16.4308 19.1924 17.3777 18.2551C18.3054 17.3083 19.0322 16.2275 19.5582 15.0129C19.7686 14.5156 19.9217 14.0087 20.046 13.4923C19.2044 12.3733 17.9611 11.589 16.5169 11.3404V11.3212Z" fill="#EB2127"/>
</svg>
