<svg width="22" height="30" viewBox="0 0 22 30" fill="none" xmlns="http://www.w3.org/2000/svg">
<path d="M13.1253 5.49414C14.205 5.49414 15.2397 5.70408 16.2295 6.11647C17.1817 6.52136 18.029 7.09121 18.7713 7.82601C19.4986 8.56831 20.0684 9.41558 20.4808 10.3678C20.8932 11.3576 21.1032 12.3923 21.1032 13.472C21.1032 14.5517 20.8932 15.5864 20.4808 16.5761C20.0759 17.5284 19.5061 18.3832 18.7713 19.118C18.029 19.8528 17.1817 20.4151 16.2295 20.8275C15.2397 21.2399 14.205 21.4498 13.1253 21.4498C12.1956 21.4498 11.2958 21.2924 10.4335 20.985C9.60126 20.685 8.83647 20.2577 8.13915 19.7028V29.2777H5.14746V13.472C5.14746 12.3923 5.3574 11.3576 5.76979 10.3678C6.17468 9.41558 6.74453 8.56831 7.47933 7.82601C8.22163 7.09871 9.0689 6.52886 10.0211 6.11647C11.0109 5.70408 12.0456 5.49414 13.1253 5.49414ZM13.1253 18.4581C13.8001 18.4581 14.445 18.3307 15.0673 18.0682C15.6671 17.8133 16.192 17.4534 16.6494 16.996C17.1067 16.5312 17.4666 16.0063 17.7216 15.414C17.9765 14.7916 18.1115 14.1393 18.1115 13.472C18.1115 12.8047 17.984 12.1523 17.7216 11.53C17.4666 10.9377 17.1067 10.4128 16.6494 9.94794C16.192 9.49056 15.6671 9.13066 15.0673 8.87573C14.445 8.6208 13.7926 8.48583 13.1253 8.48583C12.458 8.48583 11.8057 8.6133 11.1833 8.87573C10.591 9.13066 10.0661 9.49056 9.60126 9.94794C9.14388 10.4128 8.78398 10.9377 8.52905 11.53C8.27412 12.1523 8.13915 12.8047 8.13915 13.472C8.13915 14.1393 8.26662 14.7916 8.52905 15.414C8.78398 16.0063 9.14388 16.5312 9.60126 16.996C10.0661 17.4534 10.591 17.8133 11.1833 18.0682C11.8057 18.3232 12.458 18.4581 13.1253 18.4581Z" fill="black"/>
<path d="M13.8455 9.1458C13.823 9.73814 13.6955 10.3155 13.4706 10.8703C13.2157 11.4627 12.8558 11.9875 12.3984 12.4524C11.941 12.9098 11.4161 13.2697 10.8163 13.5246C10.194 13.7795 9.54165 13.9145 8.87433 13.9145C8.82934 13.9145 8.78436 13.9145 8.73937 13.9145C8.11704 13.8995 7.5097 13.772 6.93236 13.5321C6.34002 13.2772 5.81516 12.9173 5.35028 12.4599C5.08036 12.1825 4.85542 11.8751 4.65297 11.5601C4.51801 11.3427 4.38304 11.1178 4.27807 10.8778C4.02314 10.2555 3.88818 9.60317 3.88818 8.93585C3.88818 8.26853 4.01564 7.61621 4.27807 6.99388C4.533 6.40154 4.89291 5.87668 5.35028 5.41181C5.81516 4.95443 6.34002 4.59453 6.93236 4.3396C7.55469 4.08466 8.20701 3.9497 8.87433 3.9497C9.54165 3.9497 10.194 4.07717 10.8163 4.3396C11.1687 4.48955 11.4911 4.692 11.7985 4.91694C12.2259 4.84946 12.6608 4.80447 13.1032 4.80447C14.1079 4.80447 15.0677 4.98442 15.9674 5.29934C15.585 4.56453 15.1052 3.88972 14.5203 3.28988C13.778 2.56257 12.9307 1.99273 11.9785 1.58034C10.9888 1.16795 9.95404 0.958008 8.87433 0.958008C7.79462 0.958008 6.7599 1.16795 5.77017 1.58034C4.81793 1.98523 3.97066 2.55508 3.22836 3.28988C2.50105 4.03218 1.93121 4.87945 1.51882 5.83169C1.10643 6.82143 0.896484 7.85615 0.896484 8.93585V24.7416H3.88818V15.1667C4.1581 15.3841 4.44303 15.5716 4.73545 15.7515C5.19283 16.0289 5.6727 16.2689 6.18256 16.4488C7.04483 16.7562 7.94458 16.9137 8.87433 16.9137C9.33171 16.9137 9.78159 16.8687 10.224 16.7937C10.8238 16.6888 11.4086 16.5313 11.9785 16.2914C12.9307 15.8865 13.778 15.3166 14.5203 14.5818C15.2476 13.8395 15.8175 12.9923 16.2298 12.04C16.3948 11.6501 16.5148 11.2527 16.6122 10.8478C15.9524 9.97058 14.9777 9.35574 13.8455 9.16079V9.1458Z" fill="#FF002E"/>
</svg>
