<svg width="50" height="50" viewBox="0 0 50 50" fill="none" xmlns="http://www.w3.org/2000/svg">
<path d="M46.25 0H3.75C1.67893 0 0 1.67893 0 3.75V46.25C0 48.3211 1.67893 50 3.75 50H46.25C48.3211 50 50 48.3211 50 46.25V3.75C50 1.67893 48.3211 0 46.25 0Z" fill="white"/>
<rect x="9" y="19" width="6" height="17" fill="#FF002E"/>
<rect x="22" y="30" width="5" height="6" fill="#FF002E"/>
<rect x="34" y="19" width="6" height="17" fill="#FF002E"/>
<path d="M34.225 14V17.6497H40.7677V37C29.8451 37 18.9226 37 8 37V17.6497H14.5431V14C21.1038 14 27.6639 14 34.225 14ZM34.225 29.3826H39.1962V27.0733H34.225V29.3826ZM39.1962 30.9546H34.225V35.4285H39.1962V30.9546ZM34.225 25.5018H39.1962V23.1925H34.225V25.5018ZM34.225 21.6205H39.1962V19.2216H34.225V21.6205ZM9.57195 29.3826H14.5431V27.0733H9.57195V29.3826ZM14.5431 30.9546H9.57195V35.4285H14.5431V30.9546ZM9.57195 25.5018H14.5431V23.1925H9.57195V25.5018ZM9.57195 21.6205H14.5431V19.2216H9.57195V21.6205ZM27.9909 18.2979H30.5471V23.0997H27.9909V18.2979ZM23.1058 18.2979H25.6619V23.0997H23.1058V18.2979ZM18.2201 18.2979H20.7767V23.0997H18.2201V18.2979ZM28.1876 29.4355V35.4285H32.653V15.5715H16.1151V35.4285H20.5805V29.4355C22.088 29.4355 26.6797 29.4355 28.1876 29.4355ZM26.6157 31.0074H22.152V35.4285H26.6157V31.0074Z" fill="black"/>
</svg>
