<svg width="50" height="50" viewBox="0 0 50 50" fill="none" xmlns="http://www.w3.org/2000/svg">
<path d="M46.25 0H3.75C1.67893 0 0 1.67893 0 3.75V46.25C0 48.3211 1.67893 50 3.75 50H46.25C48.3211 50 50 48.3211 50 46.25V3.75C50 1.67893 48.3211 0 46.25 0Z" fill="white"/>
<path d="M27.5 31C24.3 31 20.1667 25.3333 18.5 22.5L20 21L21.5 19V17.5L16.5 13H15L11 17.5C11 27.5 20.6667 34.6667 25.5 37C29.9 39.8 33 38.8333 34 38L37 35V33.5L32.5 28.5H31L27.5 31Z" fill="#FF002E"/>
<path d="M26.0797 17.7755C27.6054 18.0353 29.0002 18.751 30.1118 19.8502C31.2173 20.9465 31.9421 22.3296 32.204 23.8456C32.3045 24.4435 32.8222 24.8754 33.4343 24.8754C33.5135 24.8754 33.5835 24.8663 33.6323 24.8573C33.6353 24.8573 33.6383 24.8573 33.6414 24.8542C33.9733 24.7999 34.2627 24.6217 34.4545 24.3469C34.6464 24.0751 34.7195 23.749 34.6616 23.4258C34.3144 21.4025 33.3521 19.5603 31.8751 18.0957C30.392 16.631 28.5312 15.6767 26.4939 15.3354H26.4908C25.8117 15.2237 25.1691 15.6797 25.0564 16.3501C24.9499 17.0266 25.4067 17.6638 26.0797 17.7755Z" fill="#040504"/>
<path d="M33.7982 28.1862C33.1159 27.4768 32.2903 27.1023 31.41 27.1023C30.5387 27.1023 29.7071 27.4707 29.0095 28.171L27.2762 29.9035C27.2336 29.8822 27.191 29.8609 27.1514 29.8396L27.063 29.7969C26.8772 29.7025 26.664 29.596 26.4873 29.4864C24.7083 28.3567 23.0846 26.877 21.5189 24.9587C20.8487 24.1153 20.3796 23.3998 20.0354 22.6873C20.471 22.2763 20.8761 21.8652 21.2569 21.4755C21.3422 21.3902 21.4275 21.3019 21.5158 21.2136C21.6011 21.1253 21.6895 21.037 21.7778 20.9487C22.5028 20.2241 22.8866 19.3837 22.8836 18.519C22.8836 17.6573 22.4998 16.82 21.7778 16.1014L20.0933 14.4177C19.9958 14.3202 19.8983 14.2228 19.8039 14.1254C19.7094 14.0279 19.612 13.9305 19.5175 13.8361L19.3835 13.6991C19.0515 13.3611 18.7072 13.011 18.36 12.6913C17.6837 12.0184 16.8643 11.6621 15.9961 11.6621C15.131 11.6621 14.3054 12.0184 13.6018 12.6913C13.5987 12.6943 13.5957 12.6943 13.5957 12.6973L11.4846 14.8043C10.6226 15.666 10.1321 16.7165 10.0255 17.9253V17.9283C9.91279 19.3594 10.1717 20.8696 10.8419 22.6812C11.8563 25.4216 13.3794 27.9609 15.6305 30.6708C18.3782 33.944 21.6773 36.5259 25.4333 38.3437H25.4363C26.8833 39.0349 28.8268 39.8448 31.0201 39.9879C31.0231 39.9879 31.0261 39.9879 31.0292 39.9879H31.0444C31.1693 39.994 31.3003 40.0001 31.4374 40.0001C32.9757 40.0001 34.2734 39.4429 35.2909 38.3437L35.3061 38.3285C35.3183 38.3163 35.3274 38.3072 35.3365 38.295C35.6412 37.9296 35.9915 37.5916 36.3844 37.2141C36.6556 36.9553 36.9328 36.6904 37.2008 36.4042C37.8923 35.6825 38.2579 34.8422 38.2548 33.9744C38.2518 33.1036 37.8801 32.2724 37.1795 31.5721L33.7982 28.1862ZM33.4631 36.6721C32.9209 37.2506 32.2995 37.5094 31.4526 37.5094C31.3734 37.5094 31.2851 37.5033 31.1937 37.4972C29.4391 37.3846 27.7789 36.6904 26.5299 36.0966C23.0816 34.4372 20.0598 32.0744 17.5466 29.0723C15.4904 26.5969 14.1044 24.2889 13.1875 21.8165C12.6392 20.3459 12.432 19.2071 12.5173 18.1323C12.5721 17.5051 12.8067 17.0057 13.2545 16.5642L15.3503 14.4694C15.5696 14.2593 15.795 14.1467 16.0052 14.1467C16.2032 14.1467 16.4134 14.2563 16.6358 14.4725C16.6388 14.4755 16.6419 14.4785 16.6449 14.4816C17.0074 14.8226 17.3608 15.1819 17.7355 15.5595L17.7477 15.5716C17.9274 15.7574 18.1345 15.9705 18.3447 16.1745L20.0262 17.8552C20.5167 18.3454 20.5167 18.6895 20.0262 19.1797C19.8496 19.3563 19.6698 19.536 19.4932 19.7186L19.3683 19.8465C18.8961 20.3246 18.4513 20.7752 17.967 21.2045C17.9609 21.2106 17.9518 21.2167 17.9457 21.2258L17.9152 21.2563C17.4004 21.7708 17.2603 22.3859 17.5009 23.0801C17.507 23.0984 17.5131 23.1136 17.5192 23.1288C17.5223 23.138 17.5253 23.1471 17.5314 23.1562C17.9822 24.2432 18.6158 25.2754 19.5906 26.5086C19.5906 26.5116 19.5937 26.5116 19.5937 26.5146C21.3239 28.643 23.1486 30.3054 25.1744 31.5903C25.4394 31.7578 25.7135 31.8978 25.9694 32.0257C26.1583 32.1201 26.3715 32.2297 26.5482 32.3363C26.5604 32.3454 26.5726 32.3515 26.5848 32.3576L26.5939 32.3637C26.6122 32.3728 26.6305 32.385 26.6518 32.3942C26.9168 32.5281 27.1788 32.5921 27.4499 32.5921C27.9129 32.5921 28.3394 32.4002 28.6836 32.0379L30.7916 29.9309C30.9439 29.7787 31.1815 29.596 31.4313 29.596C31.6628 29.596 31.8882 29.7756 32.0344 29.9279C32.0375 29.9309 32.0375 29.9309 32.0405 29.934L35.4432 33.335C35.7782 33.6699 36.0067 34.0657 35.4158 34.6869L35.4127 34.6899C35.2269 34.8909 35.0289 35.0827 34.8187 35.2867C34.773 35.3293 34.7273 35.375 34.6816 35.4207C34.2551 35.8195 33.8469 36.2154 33.4631 36.6721Z" fill="#040504"/>
<path d="M39.9809 23.173C39.4198 19.8878 37.8586 16.8907 35.465 14.5095C33.0622 12.1252 30.0496 10.572 26.7442 10.0169C26.0642 9.90468 25.4208 10.3627 25.308 11.0362C25.1952 11.7126 25.6556 12.3527 26.3295 12.4649C29.1256 12.9381 31.6717 14.2547 33.6964 16.2658C35.7211 18.2801 37.0414 20.813 37.5171 23.5916C37.6177 24.1923 38.1361 24.626 38.749 24.626C38.752 24.626 38.7551 24.626 38.7581 24.626C38.8344 24.626 38.8984 24.6169 38.9472 24.6078C38.9502 24.6078 38.9533 24.6078 38.9563 24.6048C39.2887 24.5502 39.5784 24.3712 39.7705 24.0952C39.9656 23.8252 40.0388 23.4976 39.9809 23.173Z" fill="#040504"/>
</svg>
