<svg width="252" height="90" viewBox="0 0 252 90" fill="none" xmlns="http://www.w3.org/2000/svg">
<g filter="url(#filter0_d_168_159)">
<path d="M244.92 16.2696C223.208 49.1366 160.623 73.3785 119.68 75.6573C99.4989 76.782 77.7256 72.0936 64.846 55.2246C59.2726 47.9218 55.8435 38.8256 56.7519 29.5645C57.3049 23.929 59.5497 17.4867 65.3488 15.4114C74.1795 12.2546 78.1406 22.1039 74.2087 28.8407C66.8968 41.3744 46.9882 33.037 37.8336 27.6833C27.0925 21.4012 18.2606 12.4979 10.2203 3.11515C7.93104 0.441221 4.11255 4.40122 6.40996 7.05644C16.0942 18.2327 27.1159 28.7823 40.6572 35.1169C50.4852 39.7188 63.4314 43.2229 73.3283 36.8765C80.5573 32.2384 83.8649 20.923 78.1535 13.8144C72.144 6.33158 60.9562 9.34458 55.868 16.2042C41.679 35.3426 59.1148 61.993 76.1004 72.048C99.734 86.0327 131.181 81.4938 156.091 73.6942C185.797 64.391 228.245 45.1041 247.075 17.447C247.762 16.0311 245.645 14.8502 244.913 16.2673L244.92 16.2696Z" fill="#FF002E"/>
<path d="M34.7679 6.25765C32.3524 11.4488 16.0812 3.19434 13.295 2.04854C10.9053 1.06642 8.09339 -0.161253 5.97369 2.22623C3.71486 4.77856 5.67206 9.50443 6.24379 12.2275C7.65965 18.9596 8.89428 25.762 10.6118 32.4228C11.4489 35.6743 16.0566 34.207 15.5223 31.0478C14.587 25.5328 13.2751 20.0727 12.0966 14.6044C11.8382 13.399 9.68699 7.29349 10.876 6.47623C11.1356 6.29734 15.2019 8.4943 15.4498 8.59017C21.0244 10.7578 31.5165 13.8292 36.8572 9.74294C37.1946 9.52378 37.4561 9.20588 37.6062 8.83258C37.7562 8.45929 37.7874 8.0488 37.6955 7.65712L37.4617 6.56978C37.3777 6.29374 37.2148 6.04827 36.993 5.86366C36.7713 5.67905 36.5003 5.56339 36.2137 5.53083C35.927 5.49827 35.637 5.5503 35.3795 5.68048C35.122 5.81066 34.9082 6.01325 34.7644 6.26343L34.7679 6.25765Z" fill="#FF002E"/>
</g>
<defs>
<filter id="filter0_d_168_159" x="0.911133" y="0.844727" width="250.299" height="88.231" filterUnits="userSpaceOnUse" color-interpolation-filters="sRGB">
<feFlood flood-opacity="0" result="BackgroundImageFix"/>
<feColorMatrix in="SourceAlpha" type="matrix" values="0 0 0 0 0 0 0 0 0 0 0 0 0 0 0 0 0 0 127 0" result="hardAlpha"/>
<feOffset dy="4"/>
<feGaussianBlur stdDeviation="2"/>
<feComposite in2="hardAlpha" operator="out"/>
<feColorMatrix type="matrix" values="0 0 0 0 0 0 0 0 0 0 0 0 0 0 0 0 0 0 0.25 0"/>
<feBlend mode="normal" in2="BackgroundImageFix" result="effect1_dropShadow_168_159"/>
<feBlend mode="normal" in="SourceGraphic" in2="effect1_dropShadow_168_159" result="shape"/>
</filter>
</defs>
</svg>
