<svg width="50" height="50" viewBox="0 0 50 50" fill="none" xmlns="http://www.w3.org/2000/svg">
<path d="M46.25 0H3.75C1.67893 0 0 1.67893 0 3.75V46.25C0 48.3211 1.67893 50 3.75 50H46.25C48.3211 50 50 48.3211 50 46.25V3.75C50 1.67893 48.3211 0 46.25 0Z" fill="white"/>
<path d="M14.2976 35.6014H7.39007C6.75086 35.6014 6.23242 35.083 6.23242 34.4438C6.23242 33.8046 6.75086 33.2861 7.39007 33.2861H14.2976C14.9368 33.2861 15.4552 33.8046 15.4552 34.4438C15.4552 35.083 14.9368 35.6014 14.2976 35.6014Z" fill="black"/>
<path d="M42.5 22.5L19.5 11L26.5 27.5L42.5 22.5Z" fill="#FF002E"/>
<path d="M11 26.5L18.5 12L26 27L30.5 26.5L43 24L37 35.5L34.5 39L22.5 33L11 26.5Z" fill="white"/>
<path d="M43.9507 24.2042L43.9513 24.2023V24.2004C44.0207 23.804 44.0163 23.4039 43.9432 23.0174V23.0143V23.0124L43.9414 23.0019L43.9395 22.9951L43.9271 22.9381C43.9222 22.9133 43.9166 22.8892 43.911 22.8644L43.9098 22.8588L43.9079 22.8495L43.9073 22.8471L43.9067 22.8458L43.9048 22.8421C43.8262 22.5225 43.701 22.2153 43.532 21.931L43.5307 21.9273C43.2185 21.4033 42.7583 20.9591 42.1736 20.6668L21.4307 10.2801C20.8441 9.98655 20.2105 9.88497 19.6016 9.95001H19.5991C19.2578 9.98655 18.924 10.0757 18.6106 10.2139L18.6075 10.2145L18.509 10.2609L18.5046 10.2628L18.4978 10.2659L18.4972 10.2665L18.4954 10.2678C18.1373 10.4424 17.8091 10.6821 17.5297 10.9801L17.5291 10.9807L17.5297 10.9813C17.3179 11.208 17.1345 11.4669 16.989 11.758L10.4996 24.717C9.68197 26.3491 10.3453 28.3423 11.9775 29.1593L32.7198 39.546C34.3519 40.3636 36.3451 39.7002 37.1621 38.0681L43.6509 25.1091C43.7983 24.8161 43.8962 24.5114 43.9507 24.2042ZM41.2198 24.7944L35.5591 36.099L32.4311 26.696L41.2198 24.7944ZM25.1551 27.3476C25.2691 27.5923 25.4586 27.7799 25.6859 27.8939C25.9151 28.0085 26.1839 28.0481 26.449 27.9899L30.1549 27.1884L33.5417 37.3682L13.6151 27.3903L23.624 24.0611L25.1551 27.3476ZM40.7298 22.533L26.864 25.5322L20.8212 12.5639L40.7298 22.533ZM22.6397 21.9483L12.8434 25.2076L18.7041 13.5029L22.6397 21.9483Z" fill="black"/>
<path d="M19.9923 40.0001H7.39007C6.75086 40.0001 6.23242 39.4817 6.23242 38.8425C6.23242 38.2032 6.75086 37.6848 7.39007 37.6848H19.9929C20.6321 37.6848 21.1506 38.2032 21.1506 38.8425C21.15 39.4817 20.6321 40.0001 19.9923 40.0001Z" fill="black"/>
</svg>
