<svg width="42" height="45" viewBox="0 0 42 45" fill="none" xmlns="http://www.w3.org/2000/svg">
<path d="M33 29.5H4V26V19.5L6 14L10 9L15 6V4L17 1H20L22 3.5V6.5L25.5 8L24.5 10L22.5 13.5L24 19.5L29 23.5L33 24.5V29.5Z" fill="#FF002E"/>
<path d="M32.5 30H4L2 31L1 34.5L3.5 36H32.5H35.5V34.5V33.5V32L34.5 30H32.5Z" fill="white" stroke="black"/>
<ellipse cx="32" cy="15.5" rx="8" ry="8.5" fill="white"/>
<path d="M31.6458 5.8876C29.7324 5.8876 27.9661 6.42729 26.4942 7.40856C25.4148 6.77074 24.2863 6.2801 23.1088 5.98572C23.256 5.54415 23.3051 5.10258 23.3051 4.66101C23.3051 2.10972 21.1954 0 18.6441 0C16.0928 0 13.983 2.10972 13.983 4.66101C13.983 5.10258 14.0321 5.54415 14.1793 5.98572C11.628 6.72167 9.27297 8.09545 7.45762 10.058C4.85727 12.8055 3.43443 16.4362 3.43443 20.2141V28.9474C3.43443 28.9964 3.43443 29.0455 3.43443 29.0455C1.4719 29.4871 0 31.2533 0 33.3631C0 35.8162 1.96253 37.7788 4.4157 37.7788H12.7565C12.7565 37.9259 12.7565 38.1222 12.7565 38.2694C12.7565 41.5076 15.4059 44.157 18.6441 44.157C21.8822 44.157 24.5317 41.5076 24.5317 38.2694C24.5317 38.1222 24.5317 37.9259 24.5317 37.7788H32.8724C35.3256 37.7788 37.2881 35.8162 37.2881 33.3631C37.2881 31.2533 35.8162 29.4871 33.8537 29.0455C33.8537 28.9964 33.8537 28.9964 33.8537 28.9474V24.777C38.0731 23.7957 41.2132 19.9688 41.2132 15.4549C41.2132 10.1561 36.9447 5.8876 31.6458 5.8876ZM18.6441 1.96253C20.116 1.96253 21.3425 3.18912 21.3425 4.66101C21.3425 4.95539 21.2935 5.24977 21.1954 5.54415C20.7538 5.49509 20.3122 5.44603 19.8706 5.39696C19.7725 5.39696 19.7235 5.39696 19.6253 5.39696H19.0366H18.2025H17.6628C17.6137 5.39696 17.5156 5.39696 17.4665 5.39696C17.025 5.39696 16.5343 5.44603 16.0928 5.54415C15.9946 5.24977 15.9456 4.95539 15.9456 4.66101C15.9456 3.18912 17.1722 1.96253 18.6441 1.96253ZM5.39696 20.2141C5.39696 16.9268 6.62355 13.7868 8.88046 11.4318C11.2846 8.8314 14.719 7.3595 18.2516 7.3595H19.0856C21.0972 7.3595 23.0598 7.85013 24.8751 8.73327C23.1579 10.4505 22.1276 12.8546 22.1276 15.4549C22.0785 20.7538 26.347 25.0223 31.6458 25.0223C31.744 25.0223 31.793 25.0223 31.8912 25.0223V28.9474H5.39696V20.2141ZM18.6441 42.1945C16.4853 42.1945 14.719 40.4282 14.719 38.2694C14.719 38.1222 14.719 37.9259 14.7681 37.7788H22.5201C22.5201 37.9259 22.5691 38.1222 22.5691 38.2694C22.5691 40.4282 20.8028 42.1945 18.6441 42.1945ZM35.3256 33.3631C35.3256 34.7368 34.2462 35.8162 32.8724 35.8162H4.4157C3.04193 35.8162 1.96253 34.7368 1.96253 33.3631C1.96253 31.9893 3.04193 30.9099 4.4157 30.9099H32.8724C34.2462 30.9099 35.3256 31.9893 35.3256 33.3631ZM31.6458 23.0598C27.4755 23.0598 24.041 19.6253 24.041 15.4549C24.041 11.2846 27.4755 7.85013 31.6458 7.85013C35.8162 7.85013 39.2507 11.2846 39.2507 15.4549C39.2507 19.6253 35.8162 23.0598 31.6458 23.0598Z" fill="black"/>
</svg>
