<svg width="35" height="36" viewBox="0 0 35 36" fill="none" xmlns="http://www.w3.org/2000/svg">
<circle cx="17.5" cy="7.5" r="5.5" fill="white"/>
<path d="M17.494 14.0543C16.1041 14.0543 14.7455 13.6422 13.5899 12.87C12.4343 12.0979 11.5336 11.0004 11.0017 9.71634C10.4698 8.4323 10.3307 7.01937 10.6018 5.65623C10.873 4.2931 11.5422 3.04098 12.525 2.05821C13.5078 1.07544 14.7599 0.406173 16.123 0.135028C17.4862 -0.136116 18.8991 0.00304478 20.1831 0.534914C21.4672 1.06678 22.5647 1.96747 23.3368 3.12308C24.109 4.27869 24.5211 5.63732 24.5211 7.02716C24.5211 8.89088 23.7808 10.6783 22.4629 11.9961C21.1451 13.314 19.3577 14.0543 17.494 14.0543ZM17.494 2.34239C16.5674 2.34239 15.6616 2.61715 14.8912 3.13192C14.1208 3.64669 13.5204 4.37835 13.1658 5.23438C12.8112 6.09041 12.7184 7.03236 12.8992 7.94112C13.08 8.84988 13.5261 9.68462 14.1813 10.3398C14.8365 10.995 15.6712 11.4412 16.58 11.6219C17.4888 11.8027 18.4307 11.7099 19.2867 11.3553C20.1428 11.0008 20.8744 10.4003 21.3892 9.62988C21.904 8.85948 22.1787 7.95373 22.1787 7.02716C22.1787 5.78469 21.6852 4.59309 20.8066 3.71453C19.928 2.83596 18.7364 2.34239 17.494 2.34239Z" fill="black"/>
<path d="M31.9995 25.5001C27.1995 17.5001 17.3329 17.1668 12.9995 18.0001C4.99914 20.4002 1.99936 26.6667 1.49952 29.5C-0.500479 33.5 2.99952 34.1667 4.99952 34H27.4995C33.4995 34.8 34.3329 31.6667 33.9995 30L31.9995 25.5001Z" fill="#F07E92" stroke="black"/>
<path d="M30.8692 35.2297H4.11911C3.50068 35.2301 2.89009 35.0913 2.33256 34.8237C1.77503 34.5561 1.28485 34.1665 0.898332 33.6837C0.519454 33.218 0.250115 32.673 0.110234 32.0892C-0.0296465 31.5054 -0.0364905 30.8975 0.0902082 30.3107C0.819136 26.9918 2.49057 23.954 4.90381 21.5619C8.25384 18.2451 12.78 16.3883 17.4941 16.3969C21.3474 16.3637 25.1046 17.5983 28.1871 19.9105C28.8688 20.3933 29.5075 20.934 30.0962 21.5267C32.5094 23.9188 34.1809 26.9567 34.9098 30.2755C35.0365 30.8624 35.0296 31.4702 34.8898 32.0541C34.7499 32.6379 34.4805 33.1828 34.1017 33.6486C33.7174 34.1393 33.2269 34.5366 32.667 34.8104C32.1071 35.0843 31.4924 35.2276 30.8692 35.2297ZM17.4941 18.7393C13.3947 18.7294 9.45794 20.342 6.54348 23.225C4.45219 25.3007 3.00444 27.9359 2.37404 30.8143C2.32034 31.059 2.32302 31.3127 2.38187 31.5562C2.44071 31.7996 2.55418 32.0266 2.71368 32.2197C2.8827 32.4295 3.09684 32.5984 3.34016 32.714C3.58349 32.8296 3.84974 32.8888 4.11911 32.8873H30.8692C31.1385 32.8888 31.4048 32.8296 31.6481 32.714C31.8915 32.5984 32.1056 32.4295 32.2746 32.2197C32.4341 32.0266 32.5476 31.7996 32.6064 31.5562C32.6653 31.3127 32.6679 31.059 32.6143 30.8143C31.9806 27.9346 30.5287 25.2992 28.4331 23.225C27.95 22.7207 27.425 22.2583 26.8637 21.8429C24.1685 19.803 20.8742 18.7118 17.4941 18.7393Z" fill="black"/>
</svg>
