<svg width="50" height="50" viewBox="0 0 50 50" fill="none" xmlns="http://www.w3.org/2000/svg">
<circle cx="25" cy="25" r="25" fill="#FF002E"/>
<path d="M19.8527 19C17.7264 19 16 20.7264 16 22.8708C16 24.888 17.5447 26.5236 19.5074 26.7053C19.1076 27.4323 18.3807 28.2137 17.1449 28.9588C16.7996 29.1587 16.5815 29.5222 16.5815 29.9038C16.5815 30.6852 17.3811 31.2304 18.1081 30.9033C20.2161 29.9583 23.7235 27.6503 23.7235 22.8708C23.7235 20.7264 21.9971 19 19.8527 19Z" fill="white"/>
<path d="M29.4119 19C27.2674 19 25.541 20.7264 25.541 22.8708C25.541 24.888 27.0857 26.5236 29.0484 26.7053C28.6486 27.4323 27.9217 28.2137 26.6859 28.9588C26.3406 29.1587 26.1226 29.5222 26.1226 29.9038C26.1226 30.6852 26.9222 31.2304 27.6491 30.9033C29.739 29.9583 33.2464 27.6685 33.2464 22.8708C33.2645 20.7264 31.5381 19 29.4119 19Z" fill="white"/>
</svg>
