<svg width="33" height="33" viewBox="0 0 33 33" fill="none" xmlns="http://www.w3.org/2000/svg">
<path d="M16.1849 3.10799e-08C13.0015 -0.000197753 9.88964 0.943589 7.2427 2.71201C4.59576 4.48043 2.53267 6.99406 1.31432 9.93502C0.0959746 12.876 -0.222903 16.1122 0.398013 19.2344C1.01893 22.3566 2.55175 25.2245 4.80264 27.4755C7.05352 29.7266 9.92138 31.2596 13.0435 31.8807C16.1657 32.5018 19.4019 32.1831 22.3429 30.9649C25.284 29.7468 27.7977 27.6838 29.5663 25.037C31.3349 22.3902 32.2789 19.2783 32.2789 16.095C32.2775 11.8269 30.5815 7.73402 27.5636 4.71593C24.5458 1.69785 20.453 0.00159041 16.1849 3.10799e-08ZM23.5339 12.549C23.5412 12.7077 23.5449 12.8667 23.5449 13.026C23.5544 14.4091 23.2891 15.7803 22.7642 17.0599C22.2393 18.3396 21.4653 19.5021 20.4873 20.4801C19.5092 21.4581 18.3466 22.2319 17.0669 22.7567C15.7872 23.2815 14.416 23.5467 13.0329 23.537C11.0254 23.539 9.05982 22.9631 7.37087 21.878C7.66329 21.9122 7.95746 21.9293 8.25187 21.929C9.91529 21.9318 11.5313 21.3749 12.8399 20.348C12.0691 20.3329 11.3222 20.0774 10.7037 19.6172C10.0851 19.1569 9.62581 18.515 9.38987 17.781C9.94337 17.888 10.514 17.8664 11.0579 17.718C10.222 17.5493 9.47008 17.0971 8.92925 16.4378C8.38843 15.7785 8.09192 14.9527 8.08987 14.1C8.08987 14.083 8.08987 14.068 8.08987 14.053C8.60257 14.3386 9.17628 14.497 9.76287 14.515C8.98115 13.9914 8.42825 13.1897 8.21666 12.2729C8.00507 11.3562 8.15069 10.3932 8.62387 9.58C9.55155 10.7214 10.7089 11.6549 12.0208 12.3199C13.3328 12.9849 14.7699 13.3665 16.2389 13.44C16.0555 12.6476 16.1384 11.8169 16.4746 11.0764C16.8108 10.3358 17.3816 9.72665 18.0988 9.34312C18.816 8.95959 19.6396 8.82305 20.4422 8.95463C21.2448 9.0862 21.9817 9.47855 22.5389 10.071C23.3664 9.90676 24.1598 9.60238 24.8849 9.171C24.6087 10.0264 24.0312 10.7524 23.2599 11.214C23.992 11.1272 24.707 10.931 25.3809 10.632C24.884 11.376 24.2592 12.0252 23.5339 12.549Z" fill="white"/>
</svg>
